<?xml version="1.0" encoding="utf-8"?>
<!-- Generator: Adobe Illustrator 26.0.1, SVG Export Plug-In . SVG Version: 6.00 Build 0)  -->
<svg version="1.1" id="Layer_1" xmlns="http://www.w3.org/2000/svg" xmlns:xlink="http://www.w3.org/1999/xlink" x="0px" y="0px"
	 viewBox="0 0 750 500" style="enable-background:new 0 0 750 500;" xml:space="preserve">
<style type="text/css">
	.st0{fill:#FFFFFF;}
	.st1{fill:#EBEBEB;}
	.st2{fill:#DBDBDB;}
	.st3{fill:#263238;}
	.st4{fill:#A6A6A6;}
	.st5{fill:#CB802B;}
	.st6{opacity:0.1;enable-background:new    ;}
	.st7{fill:#0C8B44;}
	.st8{fill:#C7C7C7;}
	.st9{fill:#EB9481;}
	.st10{fill:#37474F;}
	.st11{fill:#7FB8FF;}
	.st12{fill:#FF9ABB;}
	.st13{fill:#AD6359;}
	.st14{fill:#FFC10A;}
	.st15{fill:#455A64;}
	.st16{opacity:0.1;}
	.st17{opacity:0.2;enable-background:new    ;}
	.st18{display:none;fill:#FFFFFF;}
</style>
<g id="freepik--background-complete--inject-31">
	<rect x="86.2" y="61.3" class="st0" width="97.9" height="214"/>
	<path class="st1" d="M190.1,281.3H80.2v-226h109.9V281.3z M92.2,269.3h85.9v-202H92.2L92.2,269.3z"/>
	<rect x="86.2" y="164.9" class="st1" width="97.9" height="6.1"/>
	<rect x="86.2" y="119.8" class="st1" width="97.9" height="6.1"/>
	<rect x="155.4" y="72.8" class="st1" width="5.5" height="93.9"/>
	<rect x="132.4" y="72.8" class="st1" width="5.5" height="93.9"/>
	<rect x="109.4" y="72.8" class="st1" width="5.5" height="93.9"/>
	<rect x="75.1" y="54.3" class="st1" width="120.2" height="21.9"/>
	<rect x="75.1" y="54.3" class="st2" width="120.2" height="15.3"/>
	<rect x="67.5" y="43.3" class="st1" width="135.3" height="21.9"/>
	<rect x="272.2" y="61.3" class="st0" width="97.9" height="214"/>
	<path class="st1" d="M376.1,281.3H266.2v-226h109.9V281.3z M278.2,269.3h85.9v-202h-85.9V269.3z"/>
	<rect x="272.2" y="164.9" class="st1" width="97.9" height="6.1"/>
	<rect x="272.2" y="119.8" class="st1" width="97.9" height="6.1"/>
	<rect x="341.4" y="72.8" class="st1" width="5.5" height="93.9"/>
	<rect x="318.4" y="72.8" class="st1" width="5.5" height="93.9"/>
	<rect x="295.4" y="72.8" class="st1" width="5.5" height="93.9"/>
	<rect x="261" y="54.3" class="st1" width="120.2" height="21.9"/>
	<rect x="261" y="54.3" class="st2" width="120.2" height="15.3"/>
	<rect x="253.5" y="43.3" class="st1" width="135.3" height="21.9"/>
	<path class="st1" d="M414.8,347.7l13.4-0.3l6.6-0.1c2.2,0,4.4,0,6.5-0.1l-0.4,0.5l-0.1-11.2l0.5,0.5l-13.3,0
		c-4.4,0-8.8-0.1-13.2-0.2l0.3-0.3c0,1.8-0.1,3.7-0.1,5.5L414.8,347.7z M414.8,347.7l-0.1-5.5c0-1.9-0.1-3.8-0.1-5.6v-0.3h0.3
		c4.4,0,8.8-0.2,13.2-0.2l13.2-0.1h0.5v0.5v11.2v0.5h-0.5c-2.2,0-4.5,0-6.7-0.1L428,348L414.8,347.7z"/>
	<path class="st1" d="M429.6,361.8l13.4-0.3l6.6-0.1c2.2,0,4.4,0,6.5-0.1l-0.4,0.5l0-11.2l0.5,0.5l-13.2-0.1
		c-4.4,0-8.8-0.1-13.2-0.2l0.3-0.3c0,1.8-0.1,3.7-0.1,5.5L429.6,361.8z M429.6,361.8l-0.1-5.5c0-1.9-0.1-3.8-0.1-5.6v-0.3h0.3
		c4.4,0,8.8-0.2,13.2-0.2l13.2-0.1h0.5v0.5l0,11.2v0.5H456c-2.2,0-4.5,0-6.7-0.1l-6.7-0.1L429.6,361.8z"/>
	<path class="st1" d="M400,361.8l13.4-0.3l6.6-0.1c2.2,0,4.4,0,6.5-0.1l-0.4,0.5l0-11.2l0.5,0.5l-13.2-0.1c-4.4,0-8.8-0.1-13.2-0.2
		l0.3-0.3c0,1.8-0.1,3.7-0.1,5.5L400,361.8z M400,361.8l-0.1-5.5c0-1.9-0.1-3.8-0.1-5.6v-0.3h0.3c4.4,0,8.8-0.2,13.2-0.2l13.2-0.1
		h0.5v0.5l0,11.2v0.5h-0.4c-2.2,0-4.5,0-6.7-0.1l-6.7-0.1L400,361.8z"/>
	<path class="st1" d="M58.7,361.8l13.4-0.3l6.6-0.1c2.2,0,4.4,0,6.6-0.1l-0.4,0.5l-0.1-11.2l0.5,0.5L72,351.1
		c-4.4,0-8.8-0.1-13.2-0.2l0.3-0.3c0,1.8-0.1,3.7-0.1,5.5L58.7,361.8z M58.7,361.8l-0.2-5.5c0-1.9-0.1-3.8-0.1-5.6v-0.3h0.3
		c4.4,0,8.8-0.2,13.2-0.2l13.2-0.1h0.5v0.5l-0.1,11.2v0.5h-0.4c-2.2,0-4.5,0-6.7-0.1l-6.7-0.1L58.7,361.8z"/>
	<path class="st1" d="M58.7,59.9l13.4-0.3l6.6-0.1c2.2,0,4.4,0,6.6,0l-0.4,0.4l-0.1-11.2l0.5,0.5L72,49.1c-4.4,0-8.8-0.1-13.2-0.2
		l0.3-0.3c0,1.8-0.1,3.7-0.1,5.5L58.7,59.9z M58.7,59.9l-0.2-5.5c0-1.9-0.1-3.8-0.1-5.7v-0.3h0.3c4.4,0,8.8-0.2,13.2-0.2l13.2-0.1
		h0.5v0.5l-0.1,11.2v0.5h-0.4c-2.2,0-4.5,0-6.7,0l-6.7-0.1L58.7,59.9z"/>
	<path class="st1" d="M44,74l13.3-0.3l6.6-0.1c2.2,0,4.4,0,6.6,0L70,74V62.8l0.5,0.5l-13.3-0.1c-4.4,0-8.8-0.1-13.2-0.2l0.3-0.3
		c0,1.8-0.1,3.7-0.1,5.5L44,74z M44,74l-0.2-5.5c0-1.9-0.1-3.8-0.1-5.7v-0.3H44c4.4,0,8.8-0.2,13.2-0.2l13.2-0.1H71v0.5L70.9,74v0.4
		h-0.4c-2.2,0-4.5,0-6.7,0l-6.7-0.1L44,74z"/>
	<path class="st1" d="M429.6,59.9l13.4-0.3l6.6-0.1c2.2,0,4.4,0,6.5-0.1l-0.4,0.5l0-11.2l0.5,0.5l-13.2-0.1c-4.4,0-8.8-0.1-13.2-0.2
		l0.3-0.3c0,1.8-0.1,3.7-0.1,5.5L429.6,59.9z M429.6,59.9l-0.1-5.5c0-1.9-0.1-3.8-0.1-5.7v-0.3h0.3c4.4,0,8.8-0.2,13.2-0.2l13.2-0.1
		h0.5v0.5l0,11.2v0.5H456c-2.2,0-4.5,0-6.7,0l-6.7-0.1L429.6,59.9z"/>
	<path class="st1" d="M256.8,181.8l-13.4,0.3l-6.6,0.1c-2.2,0-4.4,0-6.6,0l0.4-0.4l0.1,11.2l-0.5-0.5l13.2,0.1
		c4.4,0,8.8,0.1,13.2,0.2l-0.3,0.3c0-1.8,0.1-3.7,0.1-5.5L256.8,181.8z M256.8,181.8l0.1,5.5c0,1.9,0.1,3.8,0.1,5.7v0.3h-0.3
		c-4.4,0.1-8.8,0.2-13.2,0.2l-13.2,0.1h-0.5V193l0.1-11.2v-0.4h0.4c2.2,0,4.5,0,6.7,0.1l6.7,0.1L256.8,181.8z"/>
	<path class="st1" d="M242,167.7l-13.4,0.3l-6.6,0.1c-2.2,0.1-4.4,0-6.6,0.1l0.4-0.4v11.2l-0.5-0.5l13.2,0.1c4.4,0,8.8,0.1,13.2,0.2
		l-0.3,0.3c0-1.8,0.1-3.7,0.1-5.5L242,167.7z M242,167.7l0.1,5.5c0,1.9,0.1,3.8,0.1,5.7v0.3H242c-4.4,0.1-8.8,0.2-13.2,0.2
		l-13.2,0.1H215v-0.5l0.1-11.2v-0.4h0.4c2.2,0,4.5,0,6.7,0.1l6.7,0.1L242,167.7z"/>
</g>
<g id="freepik--Shadow--inject-31">
	<ellipse class="st1" cx="290.3" cy="458.6" rx="238.6" ry="23.8"/>
</g>
<g id="freepik--Floor--inject-31">
	<polygon class="st3" points="54.7,432.8 134.8,432.5 214.9,432.5 375,432.3 535.1,432.5 615.2,432.5 695.3,432.8 615.2,433 
		535.1,433.1 375,433.3 214.9,433.1 134.8,433 	"/>
</g>
<g id="freepik--Plants--inject-31">
	<polygon class="st2" points="461.3,186.9 438.9,66.4 418.1,186.9 417.1,186.7 438.8,60.7 462.3,186.7 	"/>
	<polygon class="st2" points="455.3,286.5 439.1,227 424.1,286.4 423.1,286.2 439.1,223 456.3,286.2 	"/>
	<path class="st4" d="M440.9,62.6c0,1.1-0.9,2.1-2.1,2.1s-2.1-0.9-2.1-2.1s0.9-2.1,2.1-2.1l0,0C440,60.5,440.9,61.4,440.9,62.6
		C440.9,62.6,440.9,62.6,440.9,62.6z"/>
	<polygon class="st5" points="457.9,284.4 457.3,292.8 455.8,312.7 423.7,312.7 422.2,292.8 421.5,284.4 	"/>
	<polygon class="st6" points="457.9,284.4 457.3,292.8 422.2,292.8 421.5,284.4 	"/>
	<rect x="419.3" y="281.8" class="st5" width="40.8" height="6.5"/>
	<path class="st7" d="M461.2,280.4c-0.1,1.1-1.1,1.9-2.2,1.8c0,0,0,0,0,0c-0.5,0.7-1.5,1-2.3,0.7c-0.4,0.9-1.3,1.5-2.3,1.4
		c0.3,1.2-0.3,2.4-1.4,2.9c-0.2,0.7-0.8,1.1-1.5,1c-0.8-0.1-1.4-0.6-1.8-1.3c-0.6,0.8-1.8,1-2.6,0.4c0,0-0.1-0.1-0.1-0.1
		c-0.4-0.4-0.6-1.1-0.3-1.7c-0.1-0.1-0.3-0.1-0.4-0.2c-0.5-0.5-0.8-1.3-0.6-2c-0.5,0.2-1.1,0.2-1.7,0c-0.1,0.6-0.6,1-1.2,1
		c0.2,0.7,0.1,1.4-0.4,2c-0.5,0.6-1.3,0.9-2.1,0.8c0.2,1.1,0.3,2.3-0.7,3.1c-0.5,0.4-1.1,0.4-1.6,0.2c-0.2,1.1-1.3,1.9-2.4,1.7
		c0,0-0.1,0-0.1,0c0.2,0.7,0.1,1.4-0.2,2c-0.3,0.5-0.8,0.8-1.4,0.9c0,1.1-0.5,2.2-1.7,2.2c-0.7,0-1.2-0.6-1.2-1.3c0-0.1,0-0.1,0-0.2
		c-0.9-0.2-1.4-1.1-1.2-1.9c0.1-0.3,0.2-0.5,0.4-0.7c-1-0.8-1.2-2.2-0.4-3.2c0.1-0.1,0.2-0.3,0.4-0.4c-0.6-0.6-0.6-1.5,0-2.1
		c0,0,0.1-0.1,0.1-0.1c-0.5-0.4-0.7-1-0.7-1.6c0.1-0.8,0.5-1.4,1.2-1.8c-0.3-0.1-0.5-0.3-0.6-0.6c0-0.1,0-0.1,0-0.2
		c-0.4,0.2-0.8,0.2-1.2,0c-0.2-0.1-0.5-0.3-0.6-0.5c-0.6,0.6-1.5,0.8-2.3,0.6c-0.5,1-1.7,1.3-2.7,0.8c-0.1-0.1-0.2-0.1-0.3-0.2
		c-0.7,0.7-1.7,1.3-2.7,0.7c-0.4-0.2-0.6-0.6-0.5-1.1c-0.5,0-1-0.3-1.2-0.7c-0.3-0.5-0.1-1.2,0.3-1.5c-0.2-0.2-0.4-0.4-0.5-0.7
		c-0.1-0.8,0.5-1.5,1.2-1.6c0,0,0.1,0,0.1,0c-0.2-0.7-0.1-1.5,0.4-2c0.6-0.6,1.4-0.9,2.3-0.8c-0.2-1,0.3-2.1,1.2-2.6
		c0.9-0.4,1.9-0.2,2.5,0.6c1-1.5,3-1.9,4.5-0.9c0.2,0.2,0.5,0.3,0.6,0.6c0.4-0.7,1.2-1.1,2-0.8c1,0.5,1.6,1.5,1.5,2.6
		c1-0.5,2.3-0.4,3.2,0.2c0.8,0.6,1.3,1.6,1.2,2.6c1-0.5,2.1-0.4,3,0.2c0.8-1.1,1.9-2,3.2-2.4c0.9-0.2,1.9,0,2.6,0.5
		c0.5-1.9,2.5-3,4.4-2.4c0.9,0.3,1.6,0.8,2.1,1.6c0.7-0.6,1.8-0.7,2.6-0.3c1.2,0.6,2,1.7,2.3,3C460.3,278.4,461.2,279.3,461.2,280.4
		C461.2,280.4,461.2,280.4,461.2,280.4z"/>
	<polygon class="st5" points="464,187.2 463.2,198.4 461.1,225 418.3,225 416.3,198.4 415.4,187.2 	"/>
	<polygon class="st6" points="464,187.2 463.2,198.4 416.3,198.4 415.4,187.2 	"/>
	<rect x="412.5" y="183.6" class="st5" width="54.5" height="8.7"/>
	<path class="st7" d="M465.7,185.8c0.7,0.8,1,2,0.7,3c-0.7,1.4-1.9,2.5-3.3,3c1.2,1.6,0.8,3.8-0.8,5c-0.1,0.1-0.3,0.2-0.4,0.3
		c1.3,1.5,1.8,3.2,0.1,4.4c1.2,1.8,0.8,4.2-1,5.4c-0.1,0-0.1,0.1-0.2,0.1c0.4,1.2-0.8,4.8-3.2,4.8c-1.4,0-2.6-1.2-2.6-2.6
		c0-0.4,0.1-0.9,0.3-1.2c-1.5-0.8-2-2.6-1.3-4c0.1-0.3,0.3-0.5,0.6-0.8c0,0-1.5,0.3-2.2-0.4c-0.4-0.6-0.4-1.4-0.1-2.1
		c-1.2-1.5-1-3.7,0.5-4.9c0.1-0.1,0.2-0.1,0.3-0.2c-1.2-1-1.3-2.9-0.2-4.1c0.1-0.1,0.2-0.2,0.2-0.2c-0.7-0.3-1.3-0.8-1.7-1.4
		c-1.2,0.6-2,0.1-2.7-1.1c-0.8,0.9-2,1.2-3.1,0.8c-0.5,1.8-2.4,2.9-4.2,2.3c-0.3-0.1-0.5-0.2-0.8-0.3c-0.1,0.9-0.4,1.8-0.9,2.6
		c-0.2,0.2-0.4,0.4-0.6,0.6c-0.2,0.3-0.4,0.6-0.5,0.9c-0.3,0.5-0.7,1-1.1,1.3c-0.8,0.7-2.1,0.6-2.8-0.1c-0.4-0.5-0.5-1.1-0.3-1.7
		c-1.1-0.4-1.7-1.6-1.4-2.8c-1.1,0.1-2.1-0.5-2.6-1.5c-0.5,0.7-1.3,1.1-2.1,1.1c0.6,1.6-0.2,3.4-1.8,4c0.9,1.5,0.4,3.5-1.1,4.5
		c-0.1,0.1-0.2,0.1-0.3,0.2c0.6,1,0.3,2.3-0.7,3c0.4,0.8,0.3,1.8-0.1,2.6c-0.4,0.6-1.1,0.9-1.8,0.8c-0.7-0.2-1.2-0.9-1-1.7
		c0-0.1,0.1-0.3,0.2-0.4c-1.8-0.7-2.8-2.7-2.1-4.5c0.2-0.5,0.5-0.9,0.8-1.3c-1.5-0.4-2.5-1.9-2.1-3.5c0.1-0.3,0.2-0.6,0.4-0.9
		c-1.1-0.3-2-1.1-2.2-2.3c-0.1-0.8,0.1-1.7,0.6-2.3c-0.6,0.1-1.2-0.1-1.6-0.6c-0.2-0.3-0.3-0.6-0.3-1c-0.9,0.2-1.9-0.2-2.4-1
		c-0.4-0.8-0.2-1.9,0.4-2.5c-0.6-0.2-1.1-0.7-1.2-1.3c-0.1-0.4,0-0.8,0.1-1.1c-1.2,0.2-2.3-0.5-2.5-1.6c0,0,0-0.1,0-0.1
		c-0.1-0.8,0.4-1.5,1.2-1.8c-0.2-0.4-0.3-0.9-0.2-1.4c0.3-1.3,1.9-1.7,3.1-1.9c-0.5-1.4,0.3-3,1.7-3.4c0.4-0.1,0.9-0.2,1.3-0.1
		c-0.1-1,0.4-2.1,1.3-2.6c0.9-0.5,2.1-0.4,2.9,0.2h0.1c1.6,0.2,2.8,1.6,2.8,3.2c1-0.5,2.2-0.5,3.2,0c1.2,0.7,2,1.9,2.2,3.3
		c1.5-1.6,3.9-1.6,5.5-0.2c0.3,0.3,0.5,0.6,0.7,1c1.3-1.4,3.6-1.5,5-0.2c0.6,0.6,1,1.3,1.1,2.2c2.3-1.9,5.4-2.5,8.2-1.6
		c0.7-2,3-3,5-2.3c0.3,0.1,0.6,0.3,0.9,0.5c0.7-1.6,2.3-2.5,4-2.4c2,0.4,3.6,1.7,4.4,3.6c2.2,0.2,3.8,2,3.6,4.2c0,0.3-0.1,0.7-0.2,1
		c0.6,1.5-0.1,3.1-1.6,3.7C465.8,185.8,465.8,185.8,465.7,185.8z"/>
</g>
<g id="freepik--character-2--inject-31">
	<rect x="501.6" y="58.5" class="st8" width="161.7" height="374.3"/>
	<rect x="501.6" y="392" class="st4" width="161.7" height="40.8"/>
	<rect x="501.6" y="58.5" class="st2" width="8.5" height="374.3"/>
	<polygon class="st1" points="602.1,413.4 510,432.8 510,58.5 602.1,85.8 	"/>
	<path class="st4" d="M522.7,319.6c0.1,3.5,0.2,7.1,0.2,10.6s0.1,7.1,0.2,10.6c0.1,7.1,0.2,14.2,0.2,21.2c0,7.1,0,14.2,0,21.2
		s0,14.2-0.1,21.3l-0.5-0.9c3.7-0.6,7.3-1.1,11-1.6l5.5-0.7c1.8-0.2,3.7-0.5,5.5-0.6c-1.8,0.5-3.7,0.9-5.5,1.3l-5.5,1.2
		c-3.7,0.8-7.3,1.6-11,2.3l-0.5,0.1v-1c0-7.1-0.1-14.2-0.1-21.3s0-14.2,0.1-21.3s0.1-14.2,0.2-21.3c0-3.5,0.1-7.1,0.2-10.6
		C522.5,326.7,522.6,323.2,522.7,319.6z"/>
	<path class="st4" d="M550.5,392c-0.1-3.9-0.2-7.8-0.2-11.8s-0.1-7.8-0.2-11.8c-0.1-7.8-0.2-15.7-0.2-23.5c-0.1-7.9,0-15.7-0.1-23.6
		s0-15.7,0.1-23.6l0.6,0.9c-4.6,0.1-9.2,0.1-13.7,0.1c-2.3,0-4.6,0-6.9-0.1c-2.3,0-4.6-0.1-6.9-0.2c2.3-0.2,4.6-0.4,6.9-0.6
		s4.6-0.4,6.9-0.5c4.6-0.3,9.2-0.5,13.7-0.7h0.6v1c0.1,7.8,0.1,15.7,0.1,23.5s0,15.7,0,23.5s-0.1,15.7-0.2,23.5
		c0,3.9-0.1,7.9-0.2,11.8C550.7,384.1,550.6,388.1,550.5,392z"/>
	<path class="st4" d="M561.5,317.3c0.1,3.3,0.2,6.7,0.2,10s0.1,6.7,0.2,10c0.1,6.7,0.2,13.4,0.2,20.1c0.1,6.7,0,13.4,0.1,20.1
		s0,13.4-0.1,20.1l-0.6-0.8c3.7-0.6,7.4-1.1,11.1-1.6l5.5-0.7c1.8-0.2,3.7-0.5,5.5-0.6c-1.8,0.5-3.7,0.9-5.5,1.3l-5.5,1.2
		c-3.7,0.8-7.4,1.6-11.1,2.3l-0.5,0.1v-0.9c-0.1-6.7-0.1-13.4-0.1-20.1c0-6.7,0-13.4,0-20.1s0.1-13.4,0.2-20.2
		c0-3.3,0.1-6.7,0.2-10.1C561.3,324,561.4,320.7,561.5,317.3z"/>
	<path class="st4" d="M589.3,385.6c-0.1-3.7-0.2-7.4-0.2-11.1s-0.1-7.4-0.2-11.1c-0.1-7.4-0.2-14.8-0.2-22.2
		c-0.1-7.4-0.1-14.8-0.1-22.3s0-14.8,0-22.3l0.6,0.9c-4.6,0.1-9.1,0.1-13.7,0.1c-2.3,0-4.6,0-6.9-0.1s-4.6-0.1-6.9-0.1
		c2.3-0.2,4.6-0.4,6.9-0.6s4.6-0.3,6.9-0.5c4.6-0.3,9.2-0.5,13.7-0.7h0.6v0.9c0.1,7.4,0.1,14.8,0.1,22.2s0,14.8,0,22.2
		s-0.1,14.8-0.2,22.2c0,3.7-0.1,7.4-0.2,11.1S589.4,381.9,589.3,385.6z"/>
	<path class="st4" d="M522.7,151c0.1,3.6,0.2,7.1,0.2,10.7s0.1,7.1,0.2,10.7c0.1,7.1,0.2,14.2,0.2,21.3c0,7.1,0,14.2,0.1,21.2
		s0,14.2-0.1,21.2l-0.6-1c3.7,0.3,7.4,0.6,11,1l5.5,0.6c1.8,0.2,3.7,0.4,5.5,0.7c-1.8,0-3.7,0-5.5,0h-5.5c-3.7,0-7.4-0.1-11-0.3
		h-0.5v-1c0-7.1-0.1-14.2-0.1-21.3c0-7.1,0-14.2,0-21.3s0.1-14.2,0.2-21.3c0-3.5,0.1-7.1,0.2-10.6S522.6,154.5,522.7,151z"/>
	<path class="st4" d="M550.4,229.9c-0.1-3.9-0.2-7.9-0.2-11.8s-0.1-7.9-0.2-11.8c-0.1-7.9-0.2-15.7-0.2-23.6c0-7.9,0-15.7-0.1-23.6
		s0-15.7,0-23.6l0.6,1.1c-4.6-1-9.1-2-13.7-3.1c-2.3-0.5-4.6-1.1-6.8-1.7s-4.6-1.1-6.8-1.8c2.3,0.3,4.6,0.7,6.8,1s4.6,0.7,6.8,1.1
		c4.6,0.8,9.1,1.6,13.7,2.5l0.6,0.1v1c0.1,7.9,0.1,15.7,0.1,23.5s0,15.7,0,23.5s-0.1,15.7-0.2,23.5c0,3.9-0.1,7.8-0.2,11.8
		S550.5,226,550.4,229.9z"/>
	<path class="st4" d="M561.4,157.8c0.1,3.4,0.2,6.7,0.2,10.1s0.1,6.7,0.2,10.1c0.1,6.7,0.2,13.4,0.2,20.1c0.1,6.7,0.1,13.4,0.1,20.1
		s0,13.4-0.1,20.1l-0.6-0.9c3.7,0.3,7.4,0.6,11,0.9l5.5,0.6c1.8,0.2,3.7,0.4,5.5,0.6c-1.8,0-3.7,0-5.5,0l-5.5-0.1
		c-3.7-0.1-7.4-0.2-11-0.3h-0.5v-0.9c-0.1-6.7-0.1-13.4-0.1-20.1s0-13.4,0-20.1s0.1-13.4,0.2-20.1c0-3.3,0.1-6.7,0.2-10
		C561.2,164.4,561.3,161.1,561.4,157.8z"/>
	<path class="st4" d="M589.2,232.5c-0.1-3.7-0.2-7.4-0.2-11.1s-0.1-7.4-0.2-11.1c-0.1-7.4-0.2-14.9-0.2-22.3
		c-0.1-7.4-0.1-14.9-0.1-22.3s0-14.8,0-22.2l0.6,1c-4.6-1-9.1-2-13.7-3.1c-2.3-0.5-4.6-1.1-6.8-1.6s-4.6-1.1-6.8-1.7
		c2.3,0.3,4.6,0.7,6.8,1s4.6,0.7,6.8,1.1c4.6,0.8,9.1,1.6,13.7,2.5l0.6,0.1v0.9c0.1,7.4,0.1,14.8,0.1,22.2s0,14.8,0,22.2
		s-0.1,14.8-0.2,22.2c0,3.7-0.1,7.4-0.2,11.1C589.3,225.1,589.3,228.8,589.2,232.5z"/>
	<path class="st4" d="M522.7,88.8c0.2,3.7,0.3,7.4,0.4,11.1s0.2,7.4,0.2,11.1l-0.6-1.2c1.8,0.4,3.7,0.8,5.5,1.2s3.7,0.9,5.5,1.4
		s3.7,1,5.5,1.6s3.7,1.2,5.5,1.9c-1.8-0.1-3.7-0.4-5.5-0.6s-3.7-0.6-5.5-0.9s-3.7-0.7-5.5-1.1s-3.7-0.8-5.5-1.3l-0.6-0.2v-1
		c0-3.7,0.1-7.3,0.2-11S522.5,92.4,522.7,88.8z"/>
	<path class="st4" d="M550.4,115.2c-0.1-2.1-0.2-4.1-0.2-6.2s-0.1-4.1-0.2-6.2c-0.1-4.1-0.2-8.2-0.2-12.3l0.6,1.1
		c-2.3-0.5-4.6-1.2-6.8-1.7s-4.6-1.2-6.8-1.9s-4.6-1.4-6.8-2.2c-1.1-0.4-2.3-0.8-3.4-1.2s-2.3-0.8-3.4-1.3c1.1,0.2,2.3,0.3,3.4,0.6
		s2.3,0.4,3.4,0.6c2.3,0.5,4.6,1,6.8,1.5s4.6,1.1,6.8,1.7s4.6,1.2,6.8,1.9l0.6,0.2v1c0,4.1-0.1,8.1-0.2,12.2c0,2-0.1,4-0.2,6.1
		C550.5,111.2,550.5,113.2,550.4,115.2z"/>
	<path class="st4" d="M561.4,98.9c0.2,3.5,0.3,7,0.4,10.5s0.2,7,0.2,10.5l-0.6-1.1c1.8,0.4,3.7,0.8,5.5,1.2s3.7,0.9,5.5,1.4
		s3.7,1,5.5,1.6s3.7,1.2,5.5,1.9c-1.8-0.2-3.7-0.4-5.5-0.7s-3.7-0.6-5.5-1s-3.7-0.8-5.5-1.2s-3.7-0.8-5.5-1.3l-0.6-0.2v-1
		c0-3.5,0.1-6.9,0.2-10.4S561.2,102.3,561.4,98.9z"/>
	<path class="st4" d="M589.1,124.2c-0.1-2-0.2-3.9-0.2-5.8s-0.1-3.9-0.2-5.8c-0.1-3.9-0.2-7.7-0.2-11.6l0.6,1.1
		c-2.3-0.5-4.6-1.2-6.8-1.7s-4.6-1.2-6.8-1.9s-4.6-1.4-6.8-2.1c-1.1-0.4-2.3-0.8-3.4-1.2s-2.3-0.8-3.4-1.3c1.1,0.2,2.3,0.4,3.4,0.6
		s2.3,0.4,3.4,0.7c2.3,0.5,4.6,1,6.8,1.5s4.6,1.2,6.8,1.7s4.6,1.2,6.8,1.9l0.6,0.2v0.9c0,3.8-0.1,7.7-0.2,11.5
		c0,1.9-0.1,3.8-0.2,5.7S589.2,122.3,589.1,124.2z"/>
	<polygon class="st0" points="577.6,250.4 577.6,285.9 589.2,285.7 589.2,250.8 	"/>
	<polygon class="st1" points="580.3,258.2 580.3,266.2 589.2,265.2 589.2,258.5 	"/>
	<polygon class="st0" points="580.3,254.2 580.3,262.2 595.7,262.6 595.7,254.8 	"/>
	<polygon class="st3" points="677.7,43.3 677.7,432.8 663.3,432.8 663.3,58.5 501.6,58.5 501.6,432.8 487.1,432.8 487.1,43.3 	"/>
	<path class="st9" d="M584.6,425.8c2,0.6,60.9-2.5,63-4c0.3-0.2,0.1-5.5-0.2-12.8l1.2-43.5l-37.2,1.5l-1.5,37.7c0,0-8.2,4.2-15,7.8
		l0,0c-3,1.5-5.8,3.2-8.6,5C584.1,419.3,582.6,425.2,584.6,425.8z"/>
	<path d="M584.6,425.8c2,0.6,60.9-2.5,63-4c0.3-0.2,0.1-5.5-0.2-12.8c-14.4,3.8-53,10.5-54.3,7.5c-0.5-1.2,0.4-2.6,1.7-4
		c-3,1.5-5.8,3.2-8.6,5C584.1,419.3,582.6,425.2,584.6,425.8z"/>
	<path class="st10" d="M658.5,207.1c0,0-9.4,112.5-9.5,113.8c0,0.2,1.8,81.8,1.8,81.8l-41.3,1.7c0,0,1.3-71.4,2.4-87.4
		c1.4-20.4,9-108.5,9-108.5L658.5,207.1z"/>
	<path class="st3" d="M611.9,395.3c10.6-0.9,35.3-1.1,36.7-1.1c0.4,0,0.2,0.3,0.1,0.3c-3.4,0.5-26.8,1.2-36.8,1.2
		C611.8,395.8,611.8,395.3,611.9,395.3z"/>
	<path class="st3" d="M649,320.9c0,0,0,0.3,0,0.9l-20.2-113.6l29.7-1.1C658.5,207.1,649.2,319.5,649,320.9z"/>
	<polygon class="st9" points="663.3,365 663.2,364.7 663.3,364.6 	"/>
	<path class="st9" d="M663.4,414.6c-0.1,0.1-0.1,0.3-0.2,0.4v14c-1.3,0.7-2.7,1.2-4.1,1.7c-2.1,0.3-3-5.7-1.7-8.3
		c1.8-2.7,3.8-5.3,5.9-7.7L663.4,414.6z"/>
	<path d="M663.3,415c-0.6,1.5-0.7,2.9,0,3.8V429c-1.3,0.7-2.7,1.2-4.1,1.7c-2.1,0.3-3-5.7-1.7-8.3c1.8-2.7,3.8-5.3,5.9-7.7l0.2-0.2
		C663.4,414.7,663.3,414.9,663.3,415z"/>
	<path class="st10" d="M663.3,206.9v168.6c-5.1-18.2-11.4-41.8-14.2-55.4c-0.6-2.9-1-5.3-1.3-7.2c-2.2-17.2-5.1-52.3-6.8-77.8l0,0
		c0,0-4.9-3-8.4-5.5c-1.1-0.7-2.1-1.6-3.1-2.5l-0.1-0.1c-1.5-1.8-3.2-8.1-6.1-14.7c-0.1-0.3-0.3-0.6-0.4-0.9s-0.2-0.6-0.4-0.9
		s-0.4-0.9-0.6-1.3c-0.1-0.2-0.2-0.5-0.3-0.7l4.3-0.2l2.9-0.1l29.7-1.1l1.8-0.1L663.3,206.9z"/>
	<path class="st3" d="M628.4,226.5c2.6,1.1,5,2.5,7.2,4.1c2.4,1.6,4.6,3.4,6.9,5.1c0.1,0.1,0,0.2-0.1,0.1c-2.4-1.5-5-2.8-7.4-4.4
		c-2.4-1.4-4.7-3.1-6.8-4.9C628.2,226.6,628.3,226.5,628.4,226.5z"/>
	<path class="st3" d="M627.9,211.7c0.3,1.6,0.8,3.3,1.1,4.9s0.6,3.1,1,4.6c0.4,1.5,1.1,2.8,2.2,3.8c0.6,0.6,1.3,1,1.9,1.6
		c0.3,0.3,0.7,0.5,1.1,0.8c0-0.2-0.1-0.4-0.1-0.7c-0.1-0.6-0.2-1.2-0.3-1.9c-0.2-1.4-0.5-2.8-0.7-4.2c-0.5-2.7-0.9-5.5-1.5-8.2
		c0,0,0.1-0.1,0.1-0.1c0,0,0,0,0.1,0.1c0.7,2.7,1.5,5.3,2.1,8c0.3,1.3,1.4,7.9,1.5,8.3s0.1,1,0.1,1.4c0.1,0.5,0.1,1,0,1.5
		c0,0.1-0.1,0.1-0.2,0.1c0,0,0,0-0.1-0.1l0,0c-0.2-0.5-0.4-0.9-0.4-1.4c-0.1-0.5-0.2-0.9-0.3-1.4c0-0.2-0.1-0.4-0.1-0.5
		c-0.7-0.4-1.3-0.9-1.9-1.3s-1.3-0.9-2-1.4c-1.1-0.9-2-2.2-2.4-3.6c-0.4-1.5-0.7-3.1-0.8-4.7c-0.2-1.9-0.4-3.7-0.7-5.6
		C627.7,211.6,627.9,211.6,627.9,211.7z"/>
	<path class="st3" d="M663.3,155.7L663.3,155.7v11.7l-1.7-0.2c-0.1-0.3-0.2-0.6-0.3-0.9l-0.3-0.9c-0.1-0.4-0.3-0.8-0.4-1.3
		c-0.1-0.3-0.2-0.6-0.2-0.9s-0.2-0.8-0.3-1.3c-0.1-0.3-0.1-0.6-0.2-0.9s-0.2-0.8-0.3-1.3c-0.1-0.3-0.1-0.6-0.2-0.9s-0.2-0.8-0.2-1.3
		l-0.1-0.9c0-0.4-0.1-0.8-0.1-1.3c0-0.3,0-0.6-0.1-0.9s-0.1-0.9-0.1-1.3s0-0.6,0-0.9l0,0c0,0.1-0.1,0.4-0.2,0.9s-0.1,0.8-0.2,1.3
		c0,0.3-0.1,0.6-0.2,0.9s-0.1,0.8-0.2,1.3c0,0.3-0.1,0.6-0.1,0.9s-0.1,0.8-0.2,1.3l-0.1,0.9c-0.1,0.4-0.1,0.9-0.2,1.3l-0.1,0.9
		l-0.2,1.3c0,0.3-0.1,0.6-0.1,0.9c0,0.4-0.1,0.9-0.1,1.3s0,0.6-0.1,0.9c0,0.1,0,0.2,0,0.4l-0.5-0.1l-0.6-0.1l-0.5-0.1h-0.2l-1.4-0.2
		h-0.1c-0.1-0.3-0.1-0.6-0.2-0.9s-0.1-0.8-0.2-1.3l-0.1-0.9c0-0.4-0.1-0.8-0.1-1.3c0-0.3,0-0.6-0.1-0.9s0-0.8,0-1.1c0,0,0-0.1,0-0.1
		c0-0.1,0-0.1,0-0.2v0.2c0,0.2-0.1,0.7-0.2,1.3c0,0.3-0.1,0.5-0.2,0.9s-0.2,0.8-0.2,1.3c0,0.3-0.1,0.6-0.1,0.9s-0.1,0.9-0.2,1.3
		l-0.1,0.6l-5.6-0.6l-4.3-0.5l-1.2-0.1l-5.4-0.6l-7.2-0.9l-1.8-0.2c0.1-0.4,0.2-0.7,0.2-1.1s0.1-0.6,0.2-0.9s0.1-0.9,0.2-1.3
		s0.1-0.6,0.1-0.9c0-0.4,0.1-0.9,0.1-1.3c0-0.2,0-0.4,0-0.6V157c0-0.1,0-0.1,0-0.2c0,0,0,0,0-0.1v-0.2c0-0.4,0-0.8,0-1.1
		c-0.1-3.5-0.8-5.5-0.8-4.9c0.1,2.7-0.4,5.4-1.3,8c-0.5,1.5-1.2,2.9-2.1,4.2h-0.5l-6.3-0.8c-1.4-0.1,4.4-4,4.5-8.2
		s-2.4-8.7,0.2-14.8c0.7-1.7,1.5-3.3,2.5-4.8c1.7-2.7,3.3-4.6,4.5-8.1l0,0V126c0.1-0.4,0.2-0.8,0.2-1.3c0.3-3,0-9,1.4-14.5
		c0.1-0.6,0.3-1.1,0.5-1.7c0.3-0.9,0.7-1.8,1.1-2.6c1.5-3.1,4.2-5.3,7.4-6.2h0.1c5.6-1.7,11.7,0.1,15.5,4.5c7.4,3.1,5.6,14,4.8,20
		c-0.1,0.7-0.1,1.3,0,2c0.3,2.6,1.8,4.6,3.6,6.9v0.1l0.9,1.1L663.3,155.7C663.2,155.6,663.3,155.6,663.3,155.7z"/>
	<path class="st3" d="M663.3,132.5v1.7l-0.3-0.4l-0.5-0.6v-0.1c-1.2-1.3-2.3-2.7-3.2-4.3c-0.9-1.9-1.3-3.9-1-6
		c0,1.2,0.2,2.3,0.6,3.4c0.3,0.8,0.6,1.5,1.1,2.2C660.9,130,662,131.3,663.3,132.5z"/>
	<path class="st3" d="M630.8,106c-1.1,2.2-1.8,4.6-2.3,7c-0.5,2.4-1,4.9-1.4,7.3l-0.6,3.6c-0.2,1.2-0.5,2.3-0.9,3.4
		c-0.9,2.2-2.3,4.2-3.9,5.9c-0.8,0.9-1.6,1.9-2.3,3c-0.7,1.1-1.3,2.3-1.7,3.5c-0.4,1.2-0.7,2.5-0.9,3.7c-0.2,1.3-0.3,2.6-0.2,3.8
		c0.1,1.3,0.3,2.5,0.5,3.7c0.2,1.2,0.3,2.4,0.2,3.6c-0.2,2.4-1.5,4.7-3.6,5.9c2.3-1.1,4-3.3,4.3-5.9c0.1-1.3,0.1-2.5,0-3.8
		c-0.1-1.3-0.3-2.5-0.3-3.7c0-2.4,0.4-4.8,1.2-7c0.4-1.1,0.9-2.1,1.6-3.1c0.7-1,1.4-2,2.2-2.9c0.8-1,1.6-2,2.3-3
		c0.7-1.1,1.3-2.2,1.8-3.4c0.4-1.2,0.7-2.5,0.8-3.7c0.2-1.2,0.3-2.5,0.5-3.7c0.3-2.4,0.5-4.9,0.9-7.3
		C629.5,110.7,630.1,108.3,630.8,106z"/>
	<path class="st9" d="M644.1,146.7c-2.4,13.6-6.8,35.8-15.2,46.6c-4.6,5.9-14.2,14.1-26.8,16.9v-29.3c0.9-0.5,10.5-4.1,13.9-7.3
		c2.9-2.7,7.7-14.1,19.6-28.8C641,138.2,645.3,140,644.1,146.7z"/>
	<path class="st11" d="M620.4,165.9l18.9,8.8c0,0,3.9-15.1,5.3-25.9c1.5-11.3-4-12.1-11.9-1.6C628.1,153.2,624,159.4,620.4,165.9z"
		/>
	<path class="st3" d="M639.8,169.9c-2.6-1.5-11-4.9-12.3-5.4c-0.7-0.3-3.7-1.4-4.4-1.7c-0.1,0-0.1,0.1,0,0.1
		c1.4,0.6,2.7,1.3,4.1,1.9s9.8,4.3,12.7,5.2C639.9,170,639.9,169.9,639.8,169.9z"/>
	<path class="st11" d="M663.3,155.7L663.3,155.7v56.8h-5.2c-9.8,0-20.7-0.1-28.5-0.1H628h-0.2c-1.7,0-3.1,0-4.4-0.1h-2.9H619
		l0.1-0.9l0.1-0.9l0.2-1.3l0.1-0.9l0.2-1.3l0.1-0.9l0.2-1.3l0.1-0.9l0.2-1.3l0.1-0.9l0.1-0.5l0.1-0.8l0.1-0.9l0.2-1.3l0.1-0.9
		l0.2-1.3l0.1-0.9l0.2-1.3l0.1-0.9l0.2-1.3l0.1-0.9l0.2-1.3l0.1-0.9l0.2-1.3l0.1-0.9l0.2-1.3l0.1-0.9l0.2-1.3l0.1-0.6l0,0
		c0,0,0-0.1,0-0.1c0,0,0-0.1-0.1-0.1s0,0,0,0l0,0c0,0,0-0.1-0.1-0.1l-0.1-0.2c-0.1-0.2-0.3-0.6-0.5-0.9l-0.4-0.9
		c-0.2-0.4-0.3-0.8-0.5-1.3c-0.1-0.3-0.2-0.6-0.3-0.9s-0.3-0.8-0.4-1.3c-0.1-0.3-0.2-0.6-0.2-0.9s-0.2-0.8-0.2-1.3
		c0-0.2-0.1-0.5-0.1-0.7c0-0.1,0-0.1,0-0.2c0-0.4-0.1-0.8-0.1-1.3s0-0.6,0-0.9s0-0.9,0.1-1.3s0.1-0.6,0.1-0.9c0-0.1,0-0.3,0.1-0.4
		c0.1-0.3,0.1-0.6,0.2-0.9c0.1-0.3,0.2-0.6,0.3-0.9s0.1-0.4,0.2-0.6l0,0c0.1-0.2,0.2-0.4,0.3-0.6l0,0c0.1-0.3,0.2-0.6,0.4-0.9
		s0.4-0.8,0.6-1.3l0.5-0.9l0.2-0.4c0,0,0-0.1,0.1-0.1l0.4-0.7c0.2-0.3,0.3-0.6,0.5-0.9s0.5-0.9,0.8-1.3l0.5-0.9l0.8-1.3
		c0.1-0.1,0.1-0.2,0.2-0.3s0.2-0.3,0.3-0.5l0.2-0.2l0.7-1l0.6-0.9c0.3-0.4,0.6-0.9,0.9-1.3l0.6-0.9l0.9-1.3l0.3-0.4l0.2-0.3l0.1-0.2
		c0.3-0.4,0.6-0.9,0.9-1.3l0.6-0.9l0.9-1.3l0.6-0.9c0.3-0.4,0.7-0.9,1-1.3l0.7-0.9c0.4-0.5,0.7-0.9,1-1.3s0.5-0.6,0.7-0.8l0,0l0,0
		l0.1-0.1l0.5-0.5l0.1-0.1c0.2-0.2,0.4-0.4,0.7-0.6c0.3-0.2,0.5-0.4,0.8-0.6c0.2-0.1,0.3-0.2,0.5-0.3c2.9-1.9,6.6-2.3,9.9-1
		c0.6,0.2,1.1,0.5,1.6,0.8c0.3,0.2,0.6,0.3,0.9,0.5c0.2,0.1,0.3,0.2,0.5,0.3c0.4,0.3,0.9,0.6,1.3,1l0,0l0.3,0.3l0.1,0.1l0,0l0.3,0.3
		c0.2,0.2,0.3,0.3,0.5,0.5s0.4,0.4,0.6,0.6l0.6,0.7c0,0,0.1,0.1,0.1,0.1l0.6,0.7l0,0c0.3,0.4,0.6,0.8,0.9,1.3
		c0.2,0.3,0.4,0.6,0.6,0.9c0.3,0.4,0.5,0.8,0.8,1.3c0.2,0.3,0.3,0.6,0.5,0.9l0.7,1.3l0.4,0.9c0.2,0.4,0.4,0.8,0.6,1.3
		c0.1,0.3,0.3,0.6,0.4,0.9s0.4,0.8,0.6,1.3c0.1,0.3,0.2,0.5,0.4,0.8l0,0C663.2,155.6,663.3,155.6,663.3,155.7z"/>
	<path class="st6" d="M619.2,210.4l-0.1,0.9h44.2v-0.9H619.2z M619.5,208.3l-0.1,0.9h43.9v-0.9H619.5z M619.8,206.1l-0.1,0.9h43.6
		v-0.9H619.8z M620.1,204l-0.1,0.9h43.3V204L620.1,204z M620.5,201.9l-0.1,0.9h43v-0.9H620.5z M620.8,199.7l-0.1,0.9h42.6v-0.9
		H620.8z M621.1,197.6l-0.1,0.9h42.3v-0.9H621.1z M621.4,195.4l-0.1,0.9h42v-0.9H621.4z M621.7,193.3l-0.1,0.9h41.7v-0.9H621.7z
		 M622,191.2l-0.1,0.9h41.4v-0.9H622z M622.3,189l-0.1,0.9h41.1V189L622.3,189z M622.6,186.9l-0.1,0.9h40.8v-0.9H622.6z
		 M622.9,184.8l-0.1,0.9h40.5v-0.9H622.9z M623.1,182.6L623.1,182.6c0,0,0,0.1,0.1,0.1c0,0,0,0.1,0,0.1l0,0l-0.1,0.6h40.2v-0.9
		L623.1,182.6z M635.7,180.5h-13.4c0.1,0.3,0.2,0.6,0.3,0.9h12.7L635.7,180.5z M622,180.5l0.4,0.9h40.8v-0.9H622z M621.2,178.3
		c0.1,0.3,0.2,0.6,0.3,0.9h41.7v-0.9H621.2z M620.6,176.2c0.1,0.3,0.1,0.6,0.2,0.9h42.4v-0.9H620.6z M620.3,174.1
		C620.2,174.1,620.2,174.1,620.3,174.1c0,0.3,0,0.6,0.1,0.9h42.9v-0.9H620.3z M657.1,172.8c-0.1-0.3-0.2-0.6-0.3-0.9H640
		c-0.1,0.3-0.1,0.6-0.2,0.9H657.1z M620.1,171.9c0,0.3,0,0.6,0,0.9h43.1v-0.9H620.1z M657.5,170.6c-0.1-0.3-0.2-0.6-0.3-0.9h-1.1
		l0.3,0.9H657.5z M620.3,169.8c0,0.3-0.1,0.6-0.1,0.9h43.1v-0.9H620.3z M620.9,167.6c-0.1,0.3-0.2,0.6-0.3,0.9h42.7v-0.9H620.9z
		 M621.8,165.5c-0.1,0.3-0.3,0.6-0.4,0.9h41.8v-0.9H621.8z M622.9,163.4l-0.5,0.9h40.8v-0.9H622.9z M654.6,165.5h-24.4l2.1,0.9h22.6
		l-0.2-0.6L654.6,165.5z M624.1,161.2c-0.2,0.3-0.3,0.6-0.5,0.9h39.7v-0.9H624.1z M625.3,159.1l-0.5,0.9h38.4v-0.9H625.3z
		 M653.2,161.2L653.2,161.2c0.1,0.3,0.2,0.6,0.3,0.8h0.1c-0.1-0.3-0.2-0.6-0.2-0.9L653.2,161.2z M626.7,156.9
		c-0.1,0.2-0.2,0.4-0.3,0.5s-0.2,0.2-0.2,0.3h37.1v-0.9H626.7z M663.2,155.6L663.2,155.6c-0.1-0.3-0.2-0.6-0.4-0.8h-34.8l-0.6,0.9
		L663.2,155.6C663.3,155.7,663.3,155.6,663.2,155.6L663.2,155.6z M661.9,152.6h-32.4l-0.6,0.9h33.4
		C662.2,153.2,662.1,152.9,661.9,152.6L661.9,152.6z M660.8,150.5H631l-0.1,0.2l-0.2,0.3l-0.3,0.4h30.9L660.8,150.5z M629.6,152.6
		l-0.4,0.6l-0.1,0.2h13.8c0.1-0.3,0.1-0.6,0.2-0.9H629.6z M659.7,148.3h-27.1l-0.6,0.9h28.3C660,149,659.8,148.7,659.7,148.3
		L659.7,148.3z M658.3,146.2h-24.2l-0.6,0.9h25.5C658.7,146.8,658.5,146.5,658.3,146.2L658.3,146.2z M657.4,144.9l-0.6-0.7
		c0,0-0.1-0.1-0.1-0.1h-21L635,145L657.4,144.9L657.4,144.9L657.4,144.9z M655.1,142.3l-0.3-0.3l-0.1-0.1h-17.2l0,0l0,0
		c-0.2,0.2-0.4,0.4-0.7,0.8h18.9C655.4,142.7,655.2,142.5,655.1,142.3L655.1,142.3z M638.2,144.1c0.1,0.3,0.2,0.6,0.3,0.9h12.6
		c0.1-0.3,0.1-0.6,0.2-0.9H638.2z M652.6,140.3c-0.3-0.2-0.6-0.4-0.9-0.5h-11.6c-0.2,0.1-0.3,0.2-0.5,0.3c-0.3,0.2-0.5,0.4-0.8,0.6
		h14.2C652.9,140.5,652.7,140.4,652.6,140.3L652.6,140.3z"/>
	<path class="st3" d="M626.6,157.6c1.4-2.4,2.9-4.8,4.4-7.1l0,0c-1.1,1.6-2.3,3.3-3.4,4.9c0-0.1,0.1-0.2,0.1-0.3
		c0.3-0.6,0.6-1.3,0.9-1.9 M628.7,153.1c-0.4,0.6-0.7,1.2-1,1.9c-0.2,0.4-0.3,0.7-0.5,1.1c-1.6,2.4-3.1,4.9-4.5,7.4
		c-2.1,3.8-2.9,8.3-2.2,12.6c0.2,1.2,0.6,2.4,1,3.5c0.5,1.1,1.1,2.2,1.7,3.2c0,0,0.1,0.1,0.1,0c0,0,0.1-0.1,0-0.1
		c-1-1.9-1.7-3.9-2.1-6.1c-0.4-2.1-0.4-4.3-0.2-6.5c0.5-4.7,3.1-8.7,5.5-12.7L628.7,153.1z"/>
	<path class="st9" d="M649.8,141c-0.3,0.9-4.3,4.5-8.4,3.3c-2-0.6-1.8-5.5-1.8-5.5l0-0.6l-0.7-8.1l10-4.7l1.4-0.6c0,0,0.1,2.2,0.1,5
		v0.4c0,0.2,0,0.3,0,0.4c0,0.4,0,0.8,0,1.3s0,0.6,0,1s0,0.7,0,1C650.3,136.3,650.1,138.7,649.8,141z"/>
	<path class="st3" d="M650.3,129.9c-2.2,4.2-6.1,7.3-10.8,8.4l-0.7-8.1l10-4.7l1.4-0.6C650.2,124.9,650.3,127.1,650.3,129.9z"/>
	<path class="st9" d="M628.5,118.3c-1.1,14.2,7.2,16.4,10.3,16.7c2.8,0.2,12.2,0.6,14.8-13.4s-3.7-19-10-19.8
		S629.7,104.1,628.5,118.3z"/>
	<path class="st3" d="M630.9,115.3c0.3,0,0.6-0.1,1-0.2c0.4,0,0.7-0.2,1-0.4c0.1-0.2,0.1-0.4,0-0.6c-0.3-0.3-0.8-0.4-1.2-0.3
		c-0.5,0.1-0.9,0.3-1.2,0.6c-0.2,0.2-0.1,0.6,0.1,0.8C630.7,115.2,630.8,115.3,630.9,115.3z"/>
	<path class="st3" d="M640.2,115.8c-0.3-0.1-0.6-0.1-1-0.2c-0.3,0-0.7-0.2-0.9-0.4c-0.1-0.2-0.1-0.4,0-0.6c0.3-0.3,0.8-0.4,1.2-0.3
		c0.5,0.1,0.9,0.3,1.2,0.7c0.2,0.2,0.1,0.6-0.1,0.8C640.5,115.8,640.4,115.8,640.2,115.8z"/>
	<path class="st3" d="M638,119.4C638,119.4,638.1,119.4,638,119.4c0,1.1,0.1,2.2,1,2.5c0,0,0,0.1,0,0.1
		C637.9,121.8,637.8,120.3,638,119.4z"/>
	<path class="st3" d="M638.9,118.4c1.6-0.1,1.6,3.1,0.1,3.1S637.6,118.4,638.9,118.4z"/>
	<path class="st3" d="M639.5,118.5c0.3,0.2,0.5,0.5,0.9,0.5s0.7-0.3,0.9-0.6h0c0,0.6-0.2,1.2-0.8,1.3s-1-0.4-1.2-1.1
		C639.3,118.6,639.4,118.5,639.5,118.5z"/>
	<path class="st3" d="M632.8,118.8C632.8,118.8,632.7,118.9,632.8,118.8c-0.1,1.1-0.1,2.2-1,2.5 M631.8,121.4c1.1-0.2,1.2-1.6,1-2.6
		L631.8,121.4z"/>
	<path class="st3" d="M631.9,117.8c-1.6-0.1-1.6,3-0.2,3.1S633.2,117.9,631.9,117.8z"/>
	<path class="st3" d="M631.2,118c-0.2,0.2-0.5,0.5-0.8,0.5s-0.6-0.3-0.8-0.7l0,0c0,0.6,0.2,1.2,0.7,1.3s0.9-0.4,1.1-1
		C631.4,118.2,631.3,118,631.2,118z"/>
	<path class="st3" d="M638.8,127c-0.2,0.3-0.4,0.6-0.7,0.7c-0.4,0-0.7,0-1.1-0.1c0,0-0.1,0,0,0c0.3,0.3,0.8,0.5,1.3,0.3
		c0.4-0.2,0.7-0.6,0.6-1C638.9,126.9,638.8,126.9,638.8,127z"/>
	<path class="st3" d="M634.2,123.2c0,0-0.2,1.4-0.2,2.1c0,0.1,0.2,0.1,0.4,0.1l0,0c1.2,0.2,2.4-0.2,3.2-1.2c0-0.1,0-0.1-0.1-0.1
		c-0.9,0.6-1.9,0.9-3,0.8c0-0.2,0.4-2.5,0.3-2.5c-0.5,0-1,0.2-1.5,0.3c0.3-3,1.2-6,1.5-9c0-0.1-0.2-0.1-0.2,0c-1,3.1-1.7,6.3-2,9.6
		C632.5,123.8,633.9,123.3,634.2,123.2z"/>
	<path class="st3" d="M634.4,125.2c0.4,0.6,0.9,1,1.6,1.3c0.3,0.2,0.7,0.2,1.1,0.1c0.8-0.2,0.9-0.9,0.8-1.5c-0.1-0.3-0.2-0.7-0.3-1
		C636.7,124.9,635.6,125.2,634.4,125.2z"/>
	<path class="st12" d="M636,126.6c0.3,0.2,0.7,0.2,1.1,0.1c0.8-0.2,0.9-0.9,0.8-1.5C637,125.2,636.2,125.8,636,126.6z"/>
	<path class="st3" d="M653.3,120.6c-1.5-0.1-5.5-4.3-5.7-11.8c0,0,0.6,6.7,1.1,7.6s-2.2-2.4-2.4-8.4c-1.9,1.3-4,2.4-6.1,3.2
		c-2.8,0.8-4.6,0.8-4.8,0.6s4-1.5,5.1-2.8c0,0-7.5,3.5-11,3.8c-0.4,0-0.9-8.2,4.5-11.7s13.9,0.3,16.1,2.5c0,0,2.7,0.4,5.6,4.3
		S654.9,120.7,653.3,120.6z"/>
	<path class="st9" d="M650.3,122.7c0,0,2.8-4.6,4.9-3.6s0.1,7.5-2.2,8.6c-1.2,0.6-2.6,0.2-3.2-1c0,0,0-0.1,0-0.1L650.3,122.7z"/>
	<path class="st3" d="M654.6,120.9C654.6,120.9,654.6,120.9,654.6,120.9c-1.5,0.9-2.6,2.4-2.9,4.1c0.3-0.7,1.1-0.9,1.8-0.6
		c0.1,0,0.2,0.1,0.2,0.1v0.1c-0.6-0.2-1.2,0.1-1.6,0.6c-0.3,0.4-0.5,0.9-0.7,1.4c-0.1,0.2-0.3,0.1-0.3-0.1l0,0
		C650.8,124.3,652.3,121.2,654.6,120.9z"/>
	<path class="st0" d="M651,127.4c0,0.6,0.5,1,1.1,0.9s1-0.5,0.9-1.1c0-0.5-0.5-0.9-1-0.9C651.4,126.3,651,126.7,651,127.4
		C651,127.3,651,127.3,651,127.4z"/>
	<path class="st9" d="M663.3,155.7L663.3,155.7v31.5l-0.1-0.3l-0.5-1.3c-0.1-0.3-0.2-0.6-0.3-0.9l-0.5-1.3l-0.3-0.9l-0.5-1.3
		c-0.1-0.3-0.2-0.6-0.3-0.9s-0.3-0.9-0.4-1.3s-0.2-0.6-0.3-0.9s-0.3-0.9-0.4-1.3l-0.3-0.9l-0.3-0.8v-0.1l0,0L659,175l-0.3-0.9
		c-0.2-0.4-0.3-0.9-0.4-1.3c0-0.1-0.1-0.2-0.1-0.3c0,0,0-0.1,0-0.1c0-0.1-0.1-0.3-0.1-0.4c-0.2-0.4-0.3-0.9-0.4-1.3
		s-0.2-0.6-0.3-0.9s-0.3-0.9-0.4-1.3s-0.2-0.6-0.3-0.9s-0.2-0.7-0.3-1c0-0.1-0.1-0.2-0.1-0.3c-0.1-0.3-0.2-0.6-0.3-0.9
		c-0.1-0.4-0.3-0.9-0.4-1.3l-0.3-0.9c-0.1-0.4-0.3-0.9-0.4-1.3s-0.2-0.6-0.3-0.9c-0.1-0.4-0.3-0.9-0.4-1.3s-0.2-0.6-0.3-0.9
		c-0.1-0.4-0.3-0.9-0.4-1.3s-0.2-0.6-0.2-0.9c-0.1-0.4-0.2-0.9-0.4-1.3s-0.2-0.6-0.2-0.9s-0.2-0.7-0.3-1.1c0-0.1,0-0.1,0-0.2
		c-0.1-0.3-0.2-0.6-0.2-0.9c-0.1-0.4-0.2-0.9-0.3-1.3s-0.1-0.6-0.2-0.9c-0.1-0.4-0.1-0.9-0.2-1.3s-0.1-0.6-0.1-0.9
		c0-0.4-0.1-0.9-0.1-1.3s0-0.6,0-0.9c0-0.4,0.1-0.8,0.1-1.3c0-0.3,0.1-0.6,0.2-0.9c0.1-0.5,0.3-0.9,0.6-1.3c0.4-0.5,1-0.8,1.6-0.9
		c0.2,0,0.5,0,0.7,0.1l0,0c1.4,0.3,3,1.5,5,3.6c1.2,1.3,2.3,2.7,3.5,4.1L663.3,155.7C663.3,155.7,663.3,155.6,663.3,155.7z"/>
	<path class="st11" d="M663.3,155.7L663.3,155.7v17.7l-1.5,0.7l-1.9,0.9l-0.8,0.4l0,0l-1,0.4c0,0-0.1-0.3-0.3-0.8
		c-0.1-0.2-0.2-0.5-0.3-0.9s-0.3-0.8-0.4-1.3c-0.1-0.3-0.2-0.6-0.3-0.9l-0.4-1.3l-0.3-0.9c-0.1-0.4-0.3-0.8-0.4-1.3
		c-0.1-0.3-0.2-0.6-0.3-0.9l-0.3-1.1c0-0.1,0-0.1,0-0.2c-0.1-0.3-0.2-0.6-0.3-0.9s-0.2-0.8-0.4-1.3c-0.1-0.3-0.2-0.6-0.2-0.9
		s-0.2-0.9-0.3-1.3s-0.2-0.6-0.2-0.9s-0.2-0.9-0.3-1.3c-0.1-0.3-0.2-0.6-0.2-0.9s-0.2-0.9-0.3-1.3s-0.1-0.6-0.2-0.9
		s-0.1-0.4-0.2-0.6s-0.1-0.4-0.1-0.6s-0.1-0.6-0.2-0.9l-0.1-0.5c-0.1-0.2-0.1-0.5-0.2-0.7s-0.1-0.6-0.2-0.9
		c-0.1-0.4-0.2-0.9-0.2-1.3s-0.1-0.6-0.1-0.9c0-0.4-0.1-0.9-0.1-1.3l-0.1-0.9c0-0.4,0-0.9,0-1.3s0-0.6,0-0.9c0-0.4,0.1-0.8,0.2-1.3
		c0.1-0.3,0.1-0.6,0.2-0.9c0.1-0.5,0.3-0.9,0.6-1.3c0.2-0.4,0.5-0.7,0.9-0.9c0.5-0.2,1-0.3,1.5-0.3l0,0c1.7,0.2,3.8,1.6,6.5,4.5
		c0.8,0.9,1.6,1.8,2.5,2.8L663.3,155.7C663.3,155.6,663.3,155.6,663.3,155.7z"/>
	<path class="st3" d="M659,175.3c-0.3,0.1-0.5,0.2-0.8,0.2c-0.1-0.8-1.1-4-1.3-4.8c-0.5-1.7-1-3.4-1.5-5.1c-1-3.4-2-6.9-3-10.3
		c0-0.1-0.1,0-0.1,0c0.4,2.4,1,4.8,1.6,7.2c-0.2-0.4-0.3-0.8-0.5-1.2c-0.3-0.8-0.6-1.7-1-2.5c0,0,0-0.1,0-0.1s-0.1,0-0.1,0
		c0,0,0,0,0,0c0.2,0.9,0.5,1.7,0.9,2.6c0.3,0.6,0.6,1.3,0.9,1.9c0.2,0.8,0.4,1.7,0.7,2.5c0.5,1.7,1,3.4,1.5,5.1
		c0.3,0.8,0.5,1.6,0.8,2.4c0.3,0.9,0.7,1.7,1.1,2.5C658.4,175.7,658.7,175.5,659,175.3C659.2,175.4,659.1,175.2,659,175.3z"/>
	<path class="st3" d="M663.3,169.7v0.6l-0.8,0.4l-0.2,0.1c-0.9,0.4-1.9,0.8-2.8,1.2c-0.4,0.2-0.9,0.4-1.3,0.6l0,0
		c-0.1,0-0.2-0.1-0.1-0.1h0l0.8-0.4l2.5-1.3c0.4-0.2,0.7-0.3,0.8-0.4l0.9-0.4L663.3,169.7z"/>
	<path class="st3" d="M638.1,141C638.1,141,638.2,141,638.1,141c-0.2,1.8-0.1,3.7,1.3,5s3.7,0.9,5.3,0.6c1.8-0.4,3.4-1.1,4.9-2.2
		c1.3-1,2.3-2.9,1.2-4.5c0-0.1,0-0.1,0.1-0.1c0.9,1,1.1,2.4,0.5,3.6c-0.8,1.4-2.1,2.4-3.6,3c-1.6,0.7-3.3,1.2-5,1.3
		c-1.6,0.2-3.1-0.4-4.1-1.6C637.8,144.5,637.5,142.7,638.1,141z"/>
	<path class="st4" d="M663.3,155.7L663.3,155.7L663.3,155.7C663.3,155.7,663.3,155.6,663.3,155.7z"/>
	<path class="st4" d="M663.4,404.6c-0.1,0.1-0.1,0.3-0.2,0.4v-0.2L663.4,404.6z"/>
</g>
<g id="freepik--character-1--inject-31">
	<path class="st13" d="M215.6,452.7c-2.3,0.7-67.3-0.1-69.7-1.7c-0.9-0.6-1.4-10.1-1.6-21.5c0-0.1,0-0.2,0-0.4
		c0-2.4-0.1-4.8-0.1-7.3c0-0.3,0-0.7,0-1l3.2-33.7l43.5,0.4l-4.3,33.4v1.3l-0.3,6.9v0.7c0,0,24.7,11.5,27.2,13.5
		S217.9,452,215.6,452.7z"/>
	<path class="st1" d="M215.6,452.7c-2.3,0.7-67.3-0.1-69.7-1.7c-0.9-0.6-1.4-10.1-1.6-21.5c0-0.1,0-0.2,0-0.4c0-2.4-0.1-4.8-0.1-7.3
		c0-0.3,0-0.7,0-1l42.3,0.1v1.3l-0.3,6.9v0.7c0,0,24.7,11.5,27.2,13.5S217.9,452,215.6,452.7z"/>
	<path class="st14" d="M215.6,452.7c-1.2,0.4-18.8,0.3-36.1,0c-3.5-0.1-6.9-0.1-10.2-0.2c-12.3-0.3-22.5-0.8-23.4-1.5
		s-1.4-9.8-1.6-21.1c0-0.2,0-0.3,0-0.5s0-0.2,0-0.4h0.1l41.9,0.1v0.7c0,0,24.7,11.4,27.2,13.5S217.9,452,215.6,452.7z"/>
	<path class="st3" d="M214.9,450.2c-10.9-0.4-55.2-1-66-0.6c-0.1,0-0.1,0.1,0,0.1c10.8,0.6,55.1,0.9,66,0.7
		C215.2,450.3,215.2,450.2,214.9,450.2z"/>
	<path class="st3" d="M191,429.3c-4.3-0.9-9.6-0.3-12.9,2.8c-0.1,0.1,0,0.3,0.2,0.3c4.1-1.3,8.4-2.1,12.7-2.5c0.1,0,0.3-0.1,0.3-0.3
		S191.1,429.3,191,429.3z"/>
	<path class="st3" d="M194,431.3c-4.3-0.9-9.6-0.3-12.9,2.8c-0.1,0.1,0,0.3,0.2,0.2c4.1-1.3,8.4-2.1,12.7-2.5c0.1,0,0.3-0.1,0.3-0.3
		C194.3,431.4,194.1,431.3,194,431.3z"/>
	<path class="st3" d="M197.1,433.2c-4.3-0.9-9.6-0.3-12.9,2.8c-0.1,0.1,0,0.3,0.2,0.3c4.1-1.3,8.4-2.1,12.7-2.5
		c0.2,0,0.3-0.2,0.2-0.3C197.3,433.3,197.2,433.2,197.1,433.2z"/>
	<path class="st3" d="M179.6,452.7c-3.5-0.1-6.9-0.1-10.2-0.2c-12.3-0.3-22.5-0.8-23.4-1.5s-1.4-9.8-1.6-21.1c0-0.2,0-0.3,0-0.5
		s0-0.2,0-0.4h0.1C150.1,433.1,170.4,446.6,179.6,452.7z"/>
	<path class="st15" d="M188.9,429.3h-46.8c0,0,9.4-109.3,9.1-111.2c-0.5-2.5-17.9-70.9-21.3-83.8c-5-19.4-9-34.4-9-34.4h39.7
		c0,0,4.6,14.6,10.4,33.7c9.5,31,22.2,73.6,23.4,84C196.5,334.3,188.9,429.3,188.9,429.3z"/>
	<path class="st3" d="M187.1,421.3c-7.1-0.1-5.1-0.2-12.2-0.3c-3.5,0-26.5-0.2-29.8,0.3c0,0-0.1,0-0.1,0.1s0,0.1,0.1,0.1
		c3.3,0.5,26.3,0.4,29.8,0.3c7.1-0.1,5.1-0.1,12.2-0.3C187.2,421.5,187.2,421.3,187.1,421.3z"/>
	<path class="st3" d="M160.2,311.4c-1.5-6.8-3.8-13.4-5.8-20c-4.1-13.5-8.1-27-12.2-40.5c-2-6.7-4.1-13.5-6.2-20.2
		c-1.1-3.4-2.1-6.8-3.2-10.2c-1-3.3-2.2-6.6-3.2-10c-0.4-1.4-0.6-0.6-0.1,1.1c1,3.5,2,7,3,10.5c2,6.9,4,13.8,6.1,20.7
		c4.1,13.7,8.1,27.4,12.3,41.1c2.1,6.9,4.1,13.7,6.2,20.6c1,3.3,1.9,6.6,2.5,10c0.5,3.5,0.7,7.1,0.4,10.6
		c-0.4,7.2-1.3,14.3-1.9,21.5s-1.3,14.3-2,21.5c-1.3,14.3-2.6,28.5-3.9,42.8c-0.2,1.8-0.3,3.6-0.5,5.4c-0.1,0.6,0.9,0.6,0.9,0
		c1.5-14.1,2.7-28.2,4.1-42.3s2.6-28.1,3.9-42.1c0.3-3.5,0.7-7.1,0.7-10.6C161.3,317.9,160.9,314.6,160.2,311.4z"/>
	<path class="st3" d="M156.3,199.9c-2.4,18.8-5.8,82-6.5,111.6c-4.5-17.9-16.9-66.5-19.7-77.2l-8.9-34.2l0,0c0-0.1,0-0.1,0-0.2
		c0,0,0,0,0-0.1L156.3,199.9z"/>
	<path class="st13" d="M166.8,452.7c-2.3,0.7-67.3-0.1-69.7-1.7c-0.9-0.6-1.4-10.1-1.6-21.5v-0.4c0-2.4-0.1-4.8-0.1-7.3
		c0-0.3,0-0.7,0-1l3.2-33.7l43.5,0.4l-4.3,33.4v1.3l-0.3,6.9v0.7c0,0,24.7,11.5,27.2,13.5S169.1,452,166.8,452.7z"/>
	<path class="st1" d="M166.8,452.7c-2.3,0.7-67.3-0.1-69.7-1.7c-0.9-0.6-1.4-10.1-1.6-21.5v-0.4c0-2.4-0.1-4.8-0.1-7.3
		c0-0.3,0-0.7,0-1l42.3,0.1v1.3l-0.3,6.9v0.7c0,0,24.7,11.5,27.2,13.5S169.1,452,166.8,452.7z"/>
	<path class="st14" d="M166.8,452.7c-1.2,0.4-18.8,0.3-36.1,0c-3.5-0.1-6.9-0.1-10.2-0.2c-12.3-0.4-22.5-0.9-23.4-1.5
		s-1.4-9.8-1.6-21.1c0-0.2,0-0.3,0-0.5s0-0.2,0-0.4l0,0l41.9,0.1v0.7c0,0,24.7,11.4,27.2,13.5S169.1,452,166.8,452.7z"/>
	<path class="st3" d="M166.1,450.2c-11-0.4-55.2-1-66-0.6c-0.1,0-0.1,0.1,0,0.1c10.8,0.6,55.1,0.9,66,0.7
		C166.3,450.3,166.3,450.2,166.1,450.2z"/>
	<path class="st3" d="M142.1,429.3c-4.3-0.9-9.6-0.3-12.9,2.8c-0.1,0.1,0,0.3,0.2,0.3c4.1-1.3,8.4-2.1,12.7-2.5
		c0.1,0,0.3-0.1,0.3-0.3C142.3,429.5,142.2,429.3,142.1,429.3z"/>
	<path class="st3" d="M145.2,431.3c-4.3-0.9-9.6-0.3-12.9,2.8c-0.1,0.1,0,0.3,0.2,0.2c4.1-1.3,8.4-2.1,12.7-2.5
		c0.1,0,0.3-0.1,0.3-0.3C145.4,431.4,145.3,431.3,145.2,431.3L145.2,431.3z"/>
	<path class="st3" d="M148.3,433.2c-4.3-0.9-9.6-0.3-12.9,2.8c-0.1,0.1,0,0.3,0.2,0.3c4.1-1.3,8.4-2.1,12.7-2.5
		c0.2,0,0.3-0.2,0.2-0.3C148.5,433.3,148.4,433.2,148.3,433.2z"/>
	<path class="st15" d="M159.3,199.9c0,0-0.9,19-5.3,34c-0.4,1.2-0.7,2.5-1.1,3.6c0,0,0.6-0.5-6.3,3.8c0,0,2.7,75.5,2.8,80
		c0.4,16.9-11.9,108.8-11.9,108.8l-46.8,0.2c0,0,16.7-104.2,16.7-110.4c-0.1-9.9-6-53.1-4.2-85.1c0.8-12.2,4-24,9.5-34.9
		L159.3,199.9z"/>
	<path class="st3" d="M136.2,421.7c-7.1-0.1-5.1-0.2-12.2-0.2c-3.5,0-26.5-0.1-29.8,0.4c0,0-0.1,0-0.1,0.1s0,0.1,0.1,0.1
		c3.3,0.5,26.3,0.2,29.8,0.2c7.1-0.1,5.1-0.1,12.2-0.3c0.1,0,0.1,0,0.1-0.1S136.2,421.7,136.2,421.7z"/>
	<path class="st3" d="M115.8,202.7c-5.9,11.4-8.1,24.3-8.6,37c-0.5,13.8,1.1,27.5,2.6,41.2c1.5,14.4,2.8,28.8,1.8,43.3
		s-3.7,29.1-5.8,43.6s-4.3,29-6.1,43.5c-0.2,1.8-0.5,3.7-0.7,5.5c0,0.1,0.1,0.1,0.1,0c2.6-14.3,4.7-28.7,6.9-43.1s4.6-28.7,6.1-43.1
		s0.9-28.7-0.6-43.1c-1.4-13.9-3.2-27.7-3.3-41.6c0-13,1.3-26.2,5.9-38.4c0.6-1.6,1.3-3.2,2-4.8
		C116.1,202.5,115.9,202.4,115.8,202.7z"/>
	<path class="st3" d="M155.1,236.4c-4.7,1.9-9.1,4.3-13.4,7c-0.1,0-0.1,0.1-0.1,0.2s0.1,0.1,0.2,0.1l0,0c4.5-2.2,9.1-4.3,13.5-6.7
		c0.1-0.1,0.2-0.3,0.1-0.4C155.4,236.4,155.2,236.3,155.1,236.4z"/>
	<path class="st3" d="M155.4,220.3c-0.3,1.7-0.7,3.3-1.1,5s-0.6,3.1-1,4.7c-0.3,1.5-1.1,2.8-2.2,3.9c-0.6,0.6-1.3,1.1-1.9,1.6
		c-0.4,0.3-0.7,0.6-1.1,0.8c0-0.2,0.1-0.4,0.1-0.7c0.1-0.6,0.2-1.3,0.3-1.9c0.2-1.4,0.5-2.8,0.7-4.2c0.4-2.8,0.8-5.6,1.4-8.3
		c0-0.1-0.1-0.1-0.2,0c-0.7,2.7-1.4,5.4-2.1,8.1c-0.3,1.3-1.3,8-1.4,8.4s-0.1,1-0.1,1.4c-0.1,0.5-0.1,1,0,1.5c0,0.1,0.2,0.1,0.2,0
		l0,0c0.2-0.5,0.3-0.9,0.4-1.4c0.1-0.5,0.2-0.9,0.3-1.4c0-0.2,0.1-0.4,0.1-0.5c0.6-0.4,1.3-0.9,1.9-1.4s1.3-0.9,1.9-1.5
		c1.1-1,2-2.3,2.4-3.7c0.4-1.6,0.7-3.1,0.8-4.8c0.2-1.9,0.4-3.8,0.6-5.6C155.5,220.2,155.4,220.2,155.4,220.3z"/>
	<path class="st13" d="M152.2,146c0.6,7.8,5.2,26.1,15.5,42.4c4,6.3,20,14.6,33.1,19.9c4.8,2.1,9.8,3.8,14.9,5.1l0,0
		c0.5,0.1,1,0.2,1.6,0.3c6.2,0.8,10.6-8.7,11.2-15.8c0-0.2,0-0.4,0-0.6V197c0.2-2.9-0.3-5.2-1.6-6.2c-0.4-0.3-0.9-0.6-1.4-0.9
		c-3.8-1.9-7.6-3.7-11.6-5.2c-1.1-0.5-2.4-1-3.6-1.5c-11.5-4.6-24.7-9.6-26-10.8c-2-1.9-14.4-16.2-21.5-28.6
		C157.6,134.9,151.2,133.1,152.2,146z"/>
	<path class="st13" d="M200.8,208.3c4.8,2.1,9.8,3.8,14.9,5.1l0,0c6.3,1.6,12.8,2.5,19.3,2.6c4,0,15.5-1.2,15.7-4.3s-3.1-3-3.1-3
		s4.8-1.2,4.7-4.3c0-2.6-3.6-2.8-4.9-2.9c-0.1,0-0.1,0-0.2,0h-0.3c0,0,4.8-1.6,4.6-4.7c-0.2-2.8-4.5-2.1-5.4-2l0,0
		c0.7-0.2,4.2-1.5,3-3.7c-1.6-3-9.5,0.3-14,0.1c-0.2,0-1.3-0.1-2.9-0.3c-3.3-2.5-7.4-4.8-9.2-5.2c-3.1-0.5-6.2-0.8-9.3-0.9
		c-1.1-0.5-2.4-1-3.6-1.5C207.9,186.1,200.5,195.4,200.8,208.3z"/>
	<path class="st13" d="M215,188.6l-0.9,13.4v0.1v0.3l-0.7,10.2c0.8,0.3,1.6,0.6,2.4,0.8l0,0c6.3,1.6,12.8,2.5,19.3,2.6
		c4,0,15.5-1.2,15.7-4.3s-3.1-3-3.1-3s4.8-1.2,4.7-4.3c0-2.6-3.6-2.8-4.9-2.9h-0.5c0,0,4.8-1.6,4.6-4.7c-0.2-2.8-4.5-2.1-5.4-2h-0.1
		h0.1c0.7-0.2,4.2-1.5,3-3.7c-1.6-3-9.5,0.3-14,0.1c-0.2,0-1.3-0.1-2.9-0.3l-6.8-0.8L215,188.6z"/>
	<path class="st3" d="M231,196.3c1.8,0.5,3.7,0.9,5.6,1.2c3.4,0.3,6.8-0.5,9.6-2.4c0.2-0.1,0.2-0.2,0.1-0.3l0,0c-0.1,0-0.2,0-0.2,0
		c-2.8,1.3-5.8,2-8.9,2c-2-0.1-4.1-0.3-6.1-0.7C230.9,196.1,230.8,196.3,231,196.3z"/>
	<path class="st3" d="M231.2,203c6.4,1.2,10.1,1.6,16.2-1.2c0.2-0.1,0.2-0.2,0.1-0.3c-0.1,0-0.1,0-0.2,0l0,0
		c-6.3,1.9-9.5,2-16.1,1.4C231.2,202.8,231.1,203,231.2,203z"/>
	<path class="st3" d="M247.1,208.8c-6.3,1.5-9.8,1.7-16.1,0.2c-0.1,0-0.1,0-0.1,0.1c0,0.1,0,0.1,0.1,0.1c6.2,2.1,10.7,1.9,16.1-0.3
		C247.5,208.9,247.5,208.7,247.1,208.8z"/>
	<path class="st13" d="M216.7,201.9c0.3,0,0.7-0.1,1-0.2l0.3-0.1l0,0c5.1-1.7,7-9.3,7-9.3c1.7,0.4,3.5,0.7,5.3,0.8
		c2.6,0.1,5.2-0.1,6.7-1.1l0,0c0.4-0.2,0.8-0.6,1-1c0.1-0.2,0.2-0.5,0.3-0.7c0,0,0,0,0-0.1c0.2-1.4-2.7-3.1-6.2-4.4
		c-3.9-1.5-8.4-2.5-10.3-2.4c-3.1,0.4-6.1,1-9.1,1.8c-1.3,0.3-2.1,0.6-2.1,0.6S210.6,202.6,216.7,201.9z"/>
	<path class="st3" d="M237.7,191.2c-3.4,2.9-8.6,1.3-12.6,0.7c-0.3-0.1-0.4,0.2-0.4,0.4c-1.2,3.7-3.9,8.5-7.8,9.8c0,0-0.1,0-0.1,0.1
		c0,0,0,0.1,0.1,0.1c4.4-0.7,7.4-5.3,8.4-9.4C229.4,193.5,234.7,194.9,237.7,191.2L237.7,191.2z"/>
	<path class="st14" d="M156.6,169.7l24.8-2.8c0,0-15.4-22.8-21.8-28.2c-7.2-6.1-8.8-1.1-8.1,7.9S156.6,169.7,156.6,169.7z"/>
	<path class="st6" d="M156.6,169.7l24.8-2.8c0,0-15.4-22.8-21.8-28.2c-7.2-6.1-8.8-1.1-8.1,7.9S156.6,169.7,156.6,169.7z"/>
	<path class="st3" d="M176.7,162.5c-3.2,0-12.9,1.3-14.4,1.5c-0.8,0.1-4.2,0.7-5,0.8c-0.1,0-0.1,0.2,0,0.2c1.6-0.2,3.2-0.2,4.8-0.4
		s11.5-1.1,14.6-1.9C176.7,162.6,176.8,162.6,176.7,162.5C176.7,162.5,176.7,162.5,176.7,162.5z"/>
	<path class="st3" d="M170,168.2l-13.3,1.5c0,0-4.4-14.1-5-23.1c-0.5-6.5,0.2-10.9,3.4-10.5L170,168.2z"/>
	<path class="st14" d="M104.7,218.2c0.1,0.2,64.5,6.8,65.1,6.1c1-0.9-5.2-76.2-11.3-86c-1.3-2.1-11.7-5-16.4-1.7
		C127.3,147,104.2,217.5,104.7,218.2z"/>
	
		<rect x="145.8" y="155.5" transform="matrix(9.845136e-02 -0.9951 0.9951 9.845136e-02 -28.5695 291.8221)" class="st6" width="2" height="12.3"/>
	<path class="st14" d="M196.1,173.1c-0.3,0.5-8,14.8-8.3,16.4s-11,40.9-10.4,42.1s17.4,7.8,18.1,7.8s34-7.4,35.8-8.7
		s2.4-31.9,1.8-35s-2.7-8.8-2.7-8.8l1.2-1.7c0,0-3.4-14.4-4.1-13.9S196.8,172.1,196.1,173.1z"/>
	<path class="st6" d="M195.5,239.3c-0.7,0-17.5-6.6-18.1-7.8s10.1-40.4,10.4-42.1s8-15.9,8.3-16.4c1.4,3,2.6,16.2,2.8,17.9
		S195.8,235.8,195.5,239.3z"/>
	<path class="st6" d="M230.4,186.8c-2.5,0.4-5.1,0.6-7.7,0.9s-5.1,0.5-7.7,0.6s-5.1,0.3-7.7,0.5s-5.1,0.2-7.7,0.3l0,0
		c-0.3-0.1-0.5-0.2-0.6-0.5c-0.1-0.2-0.2-0.4-0.2-0.6c-0.1-0.4-0.2-0.8-0.3-1.2c-0.1-0.8-0.2-1.5-0.3-2.3c0.1,0.8,0.3,1.5,0.5,2.3
		c0.1,0.4,0.2,0.7,0.4,1.1c0.1,0.3,0.4,0.7,0.5,0.7l0,0c2.6-0.2,5.1-0.5,7.7-0.7s5.1-0.4,7.7-0.5s5.1-0.3,7.7-0.4
		S227.8,186.9,230.4,186.8z"/>
	<polygon class="st0" points="222.1,192.6 217.4,192.7 214.3,183.2 219,183.2 	"/>
	<g class="st16">
		<path d="M195.6,176.4c-0.6,4.3-1.3,8.6-2,12.9s-1.5,8.6-2.2,12.9s-1.6,8.6-2.5,12.8l-1.3,6.4c-0.5,2.1-0.9,4.3-1.4,6.4
			c0.3-2.2,0.6-4.3,0.9-6.5l1-6.4c0.7-4.3,1.5-8.6,2.2-12.9s1.6-8.6,2.5-12.8S194.6,180.7,195.6,176.4z"/>
		<path d="M178.8,230.9c2.4-1.3,4.8-2.4,7.3-3.5l0.3-0.1l0.2,0.3c1.3,1.5,2.7,3.1,3.9,4.6s2.5,3.2,3.6,4.9c-1.5-1.4-2.9-2.9-4.3-4.3
			s-2.7-3-4-4.6l0.5,0.1C183.9,229.2,181.4,230.1,178.8,230.9z"/>
	</g>
	<path class="st13" d="M136.1,144.3c-6,16.2-17.2,56.7-9,61.9c13.6,8.5,41.4,11.1,49.8,11c3.6,0,7.9-27.8,4.1-28.8
		c-4.5-1.2-33.3-2.1-33.9-4.4c-0.3-1.3,0.6-14.5-1-29.1C144.2,137.9,138.1,138.7,136.1,144.3z"/>
	<path class="st13" d="M168.7,190.4c0,0,9.2-6.1,15.4-9.8c3.4-2.1,9.7-5.1,12.9-5.4c4.8-0.5,25.4,0.3,25.3,5.3
		c-0.1,4.5-17.6,1.6-17.6,1.6s18,1.4,16.9,6.8s-20.5-0.6-20.5-0.6s18.4,1.9,16.4,7.3c-1.5,4.1-19.4-0.3-19.4-0.3s15.8,1.7,14.4,6
		c-1.5,4.7-18.3,1.7-18.3,1.7c-5.4,10.2-11.9,13.6-17.1,14.3C175.8,217.3,168.7,190.4,168.7,190.4z"/>
	<path class="st3" d="M198.4,181.1c2.1,0.1,4.3,0.2,6.4,0.4s4.2,0.6,6.3,1.1c2.7,0.6,5.4,1.4,7.9,2.6c-4.6-1.8-12.1-2.9-14.2-3.1
		S200.5,181.4,198.4,181.1C198.3,181.1,198.3,181.1,198.4,181.1z"/>
	<path class="st3" d="M197.2,188.6c2.7,0.2,5.4,0.4,8.1,0.7s5.2,0.9,7.8,1.4c0.2,0,0.1,0.1-0.1,0.1c-2.7-0.4-5.2-0.6-7.8-1
		S199.9,189,197.2,188.6C197.2,188.7,197.2,188.6,197.2,188.6z"/>
	<path class="st3" d="M195.1,195c4.1,0.2,8.3,0.9,12.3,2c0.2,0.1,0.1,0.2-0.1,0.1c-4.1-0.8-7.2-1.4-12.1-2
		C195,195.1,195,195,195.1,195z"/>
	<path class="st3" d="M192.5,176.2c-4,0.9-17.8,9.6-19.3,10.9c-1.1-0.1-5.8-0.4-6.4-0.3c-0.1,0-0.1,0.1-0.1,0.1c0,0,0,0.1,0.1,0.1
		c0.5,0.2,5.2,0.9,6.3,1c0.2,0,16.2-10,19.6-11.6C192.9,176.3,192.7,176.2,192.5,176.2z"/>
	<path class="st14" d="M148.9,171.7l-24.3,5.8c0,0,6.8-26.6,11-33.9c4.7-8.2,7.9-4,10.3,4.7S148.9,171.7,148.9,171.7z"/>
	<path class="st6" d="M148.9,171.7l-24.3,5.8c0,0,6.8-26.6,11-33.9c4.7-8.2,7.9-4,10.3,4.7S148.9,171.7,148.9,171.7z"/>
	<path class="st3" d="M147,167.5c-3.2,0.3-12.6,2.6-14.2,3c-0.8,0.2-4.1,1.1-4.9,1.3c-0.1,0,0,0.2,0.1,0.2c1.6-0.4,3.2-0.6,4.8-0.9
		s11.3-2.4,14.3-3.4C147,167.6,147.1,167.6,147,167.5C147,167.5,147,167.5,147,167.5z"/>
	<path class="st3" d="M131.5,153.8c0-0.1-0.1-0.1-0.2,0c-0.8,2.2-1.6,4.4-2.4,6.6c0.1-1.2,0.3-2.4,0.7-3.6c0,0-0.1-0.1-0.1,0
		c-0.4,1.4-0.7,2.8-0.8,4.2c-0.5,1.5-1,3.1-1.5,4.6c-1.2,4-2.5,7.9-3.5,11.9c0,0.2,0.1,0.3,0.2,0.3c0,0,0.1,0,0.1,0
		c0.8-0.2,1.7-0.5,2.5-0.8c0.1,0,0.1-0.2,0-0.2c-0.7,0.1-1.4,0.2-2.1,0.3c1.3-3.8,2.4-7.6,3.5-11.5S130.4,157.8,131.5,153.8z"/>
	<path class="st3" d="M148.4,161c0-1.3,0.1-2.6,0-4c0,0,0,0-0.1,0c0,1-0.1,1.9-0.1,2.9c-0.2-1.9-0.5-3.8-0.9-5.7c0,0-0.1,0,0,0
		c0.1,2.9,0.4,5.9,0.6,8.8s0.4,5.7,0.7,8.6c-0.5,0.2-1.1,0.4-1.6,0.6c0,0-0.1,0.1-0.1,0.1c0,0,0.1,0.1,0.1,0.1
		c0.6-0.1,1.2-0.2,1.9-0.3c0.1,0,0.3-0.1,0.3-0.3C149.1,168.2,148.9,164.6,148.4,161z"/>
	<path class="st13" d="M153.6,147c-2.3,0.1-8.5-4.6-10.5-9.3c-0.1-0.3,2.2-12.5,2.4-15c0-0.5,15.1,5.1,15.1,5.1
		c-1.1,3-1.9,6.1-2.3,9.3c0,0.3,0,0.7,0,1c0,0.1,0,0.1,0,0.2C158.5,140.2,157,146.8,153.6,147z"/>
	<path class="st3" d="M146.5,122.8c0.2,3.8,1.7,14.4,10.2,15.4c0.5,0.1,1.1,0.1,1.6,0.1c0-0.1,0-0.1,0-0.2c0-0.3,0-0.7,0-1
		c0.4-3.2,1.2-6.3,2.3-9.3C160.6,127.8,149.9,123.8,146.5,122.8z"/>
	<path class="st13" d="M147.2,101.9c-2.8,5-3.4,21.1-0.3,25.4c4.4,6.2,13.4,8.7,19.1,2.9c5.5-5.6,5.9-26.6,2.3-30.6
		C163,93.6,151.3,94.5,147.2,101.9z"/>
	<path class="st3" d="M160,114.5C160,114.5,159.9,114.5,160,114.5c-0.1,1.2-0.3,2.4-1.3,2.8 M158.7,117.3c1.2-0.1,1.4-1.8,1.3-2.8
		L158.7,117.3z"/>
	<path class="st3" d="M159.1,113.3c-1.7-0.2-2,3.3-0.4,3.5S160.5,113.5,159.1,113.3z"/>
	<path class="st3" d="M166.2,115.2C166.2,115.2,166.3,115.2,166.2,115.2c0,1.2,0,2.4,1,2.9c0,0,0,0.1,0,0.1
		C166,117.8,165.9,116.2,166.2,115.2z"/>
	<path class="st3" d="M167.3,114.1c1.8,0,1.6,3.5,0,3.5S165.8,114.1,167.3,114.1z"/>
	<path class="st3" d="M157.8,111.6c0.5-0.1,0.9-0.2,1.4-0.4c0.5-0.1,1-0.3,1.4-0.7c0.2-0.3,0.2-0.6-0.1-0.9
		c-0.5-0.4-1.2-0.6-1.8-0.3c-0.7,0.1-1.2,0.5-1.6,1c-0.3,0.4-0.2,0.9,0.2,1.1C157.3,111.6,157.6,111.7,157.8,111.6z"/>
	<path class="st3" d="M168.8,112.4c-0.5-0.1-0.9-0.3-1.4-0.5c-0.5-0.1-1-0.4-1.3-0.8c-0.2-0.3-0.1-0.7,0.1-0.9
		c0.5-0.4,1.2-0.5,1.9-0.2c0.6,0.2,1.2,0.6,1.6,1.2c0.2,0.4,0.1,0.9-0.3,1.1C169.2,112.5,169,112.5,168.8,112.4z"/>
	<path class="st3" d="M158.2,124.5c0.2,0.3,0.5,0.6,0.9,0.7c0.4,0,0.8,0,1.2-0.2c0,0,0.1,0,0,0.1c-0.3,0.4-0.9,0.6-1.4,0.5
		c-0.4-0.2-0.7-0.5-0.8-1C158.1,124.4,158.2,124.4,158.2,124.5z"/>
	<path class="st3" d="M159.6,121.3c0.5,0.9,1.3,1.6,2.3,1.8c0.4,0.1,0.9,0.2,1.3,0.2h0.2h0.2c0.1,0,0.2-0.1,0.2-0.2l0,0V123l0,0
		v-0.1c0.1-0.8,0.1-2.1,0.1-2.1c0.3,0.2,1.8,1,1.8,0.6c0.2-3.8,0-7.5-0.6-11.3c0-0.1-0.2-0.1-0.2,0c-0.2,3.5,0.2,7,0.1,10.5
		c-0.5-0.3-1.1-0.5-1.7-0.7c-0.1,0,0,2.5-0.1,2.8l0,0c-1.4,0-2.7-0.5-3.7-1.5C159.6,121.2,159.5,121.2,159.6,121.3z"/>
	<path class="st3" d="M162.8,122.9c-0.5,0.6-1.1,1-1.9,1.2c-0.4,0.1-0.8,0.1-1.2,0c-0.9-0.3-0.8-1.1-0.6-1.8c0.1-0.3,0.3-0.7,0.5-1
		C160.5,122.2,161.6,122.7,162.8,122.9z"/>
	<path class="st12" d="M160.9,124.1c-0.4,0.1-0.8,0.1-1.2,0c-0.9-0.3-0.8-1.1-0.6-1.8C160.1,122.4,160.8,123.1,160.9,124.1z"/>
	<path class="st3" d="M145.2,116.6c3-0.4,5.9-9.7,5.9-9.7s-0.6,4,0.1,4s4.7-5,5.7-8.9c2,1.8,4.2,3.4,6.6,4.6c3.4,1.6,7.1,1.9,7,1.3
		c0-1.9-0.3-6.7-1.6-8.1c-3.3-3.7-8.5-5.4-13.4-4.2c-6.2,1.3-8.3,4.9-9.7,7.7S144.1,116.7,145.2,116.6z"/>
	<path class="st14" d="M170.6,103.8c-1.5-0.6-9.9-1.6-14-0.5s-11.6,5.5-12,5.8s0-13.9,11.6-14.8C169,93.3,170.6,103.8,170.6,103.8z"
		/>
	<path class="st14" d="M145.4,108.5c0,0,8.9-8.7,13.4-10.4s14-1.5,19.3,1.9c4.2,2.6-7.6,6.8-7.6,6.8c-0.1-1-0.6-1.9-1.4-2.4
		c-2.6-1.5-8.1-1.5-11.2-0.9C153.9,104.2,145.4,108.5,145.4,108.5z"/>
	<path class="st17" d="M145.4,108.5c0,0,8.9-8.7,13.4-10.4s14-1.5,19.3,1.9c4.2,2.6-7.6,6.8-7.6,6.8c-0.1-1-0.6-1.9-1.4-2.4
		c-2.6-1.5-8.1-1.5-11.2-0.9C153.9,104.2,145.4,108.5,145.4,108.5z"/>
	<path class="st14" d="M157.1,120.8c-2.6-0.6-4.2-3.3-3.6-5.9c0.6-2.6,3.3-4.2,5.9-3.6c2.2,0.5,3.7,2.4,3.7,4.6l0,0
		c0.1,2.7-2,4.9-4.7,5c0,0,0,0,0,0C157.9,121,157.5,121,157.1,120.8z M159.1,112c-0.3-0.1-0.7-0.1-1-0.1c-2.3,0-4.2,1.9-4.2,4.3
		c0,2.3,1.9,4.2,4.3,4.2s4.2-1.9,4.2-4.3C162.4,114.1,161,112.4,159.1,112z"/>
	<path class="st14" d="M168.2,122.1c-1.8-0.4-3-2.7-2.7-5.2c0.1-1.2,0.6-2.4,1.4-3.3c1-1.3,2.9-1.6,4.2-0.6c0.4,0.3,0.8,0.7,1,1.2
		c0.6,1.1,0.8,2.3,0.6,3.5c-0.3,2.7-2.2,4.7-4.2,4.4C168.4,122.1,168.3,122.1,168.2,122.1z M169.8,113.1c-0.1,0-0.2,0-0.2,0
		c-0.9,0-1.7,0.3-2.2,1c-0.7,0.8-1.1,1.8-1.2,2.9c-0.3,2.3,0.8,4.3,2.5,4.5s3.2-1.6,3.4-3.9c0.1-1.1-0.1-2.2-0.6-3.1
		C171.1,113.9,170.5,113.3,169.8,113.1L169.8,113.1z"/>
	<path class="st14" d="M162.8,116.6l-0.4-0.5c0.8-0.5,2.6-1.2,3.6,0.2l-0.5,0.4C164.6,115.4,162.9,116.5,162.8,116.6z"/>
	<path class="st14" d="M141.1,115.3l-0.5-0.4c0.2-0.2,1.7-2.5,3.2-2.5s10,1.7,10.3,1.8l-0.1,0.6c-2.5-0.5-9.1-1.8-10.2-1.8
		S141.5,114.7,141.1,115.3z"/>
	<path class="st13" d="M147.7,115.2c0,0-2.5-5.7-5.1-4.9s-1.3,8.6,1.2,10.2c1.3,0.9,3,0.6,3.9-0.7c0,0,0-0.1,0.1-0.1L147.7,115.2z"
		/>
	<path class="st3" d="M143.1,112.6c1.7,1.1,2.4,3.1,2.7,5c-0.3-0.8-1.2-1.2-2-0.9c-0.1,0-0.1,0.1-0.2,0.1c-0.1,0,0,0.1,0,0.1
		c0.7-0.1,1.4,0.3,1.7,1c0.3,0.5,0.5,1.1,0.6,1.7c0.1,0.2,0.4,0.2,0.4,0l0,0C146.8,117,145.6,113.3,143.1,112.6L143.1,112.6z"/>
</g>
<g id="freepik--Motorcycle--inject-31">
	<path class="st10" d="M408.2,383.5c31.1,0,49.1,21.6,49.1,47s-16.7,46.5-47,46.5c-33.5,0-49.6-26.7-49.6-46.7
		S376.7,383.5,408.2,383.5z"/>
	<path class="st3" d="M403.4,383.5c29.5,0,46.7,21.6,46.7,47S434.2,477,405.4,477c-31.9,0-47.1-26.7-47.1-46.7
		S373.5,383.5,403.4,383.5z"/>
	<path class="st8" d="M403.7,401.7c18,0,28.4,13.2,28.4,28.6s-9.7,28.3-27.2,28.3c-19.4,0-28.7-16.3-28.7-28.5
		S385.5,401.7,403.7,401.7z"/>
	<path class="st10" d="M182.9,460c38.3,0,51.1-20.1,51.1-44.4s-17.8-44.9-52.6-44.9c22.7,0,35.9,20.6,35.9,44.9S205.1,460,182.9,460
		z"/>
	<path class="st3" d="M181.4,370.7c22.7,0,35.9,20.6,35.9,44.9S205.1,460,182.9,460c-24.5,0-36.2-25.5-36.2-44.7
		S158.4,370.7,181.4,370.7z"/>
	<path class="st3" d="M163.4,415.4c0,18.5-4.7,43,17.1,44.6h0.8h0.6h0.9c22.2,0,34.4-20.1,34.4-44.4s-13.2-44.9-35.9-44.9h-1.2h-0.6
		c-0.4,0-0.7,0-1.1,0.1C158.8,372.9,163.4,397,163.4,415.4z"/>
	<path class="st8" d="M179.8,388.1c12.6,0,19.9,12.6,19.9,27.4s-6.8,27.1-19.1,27.1c-13.6,0-20.1-15.5-20.1-27.2
		S167,388.1,179.8,388.1z"/>
	<polygon class="st14" points="357.9,277.3 345.7,277.3 337.3,265 351.6,265 	"/>
	<polygon class="st14" points="337.3,265 342.2,272.2 345.7,277.3 357.9,277.3 354.6,270.9 351.6,265 	"/>
	<polygon class="st6" points="337.3,265 342.2,272.2 354.6,270.9 351.6,265 	"/>
	<polygon class="st14" points="387.6,369.1 375.7,371.9 364.8,361.8 378.8,358.5 	"/>
	<polygon class="st14" points="364.8,361.8 371.2,367.7 375.7,371.9 387.6,369.1 383,363.6 378.8,358.5 	"/>
	<polygon class="st6" points="364.8,361.8 371.2,367.7 383,363.6 378.8,358.5 	"/>
	<path class="st15" d="M211.4,405.4l3.4,7.6c0,0,92.5,7.1,101.2,5.8c7.3-8.7,13.5-18.2,18.4-28.5h-41.8c-6.2,0.1-12.4-1.3-18-4
		l-5.4-0.9l-9.7,4.9l-10.6,15.1l-29.6-0.5L211.4,405.4z"/>
	<path class="st10" d="M259.5,390.3c0,0,23.7,14.6,69.8,9.6c1.7-2.9,3.5-6.1,5.1-9.6h-41.8c-6.2,0.1-12.4-1.3-18-4l-5.4-0.9
		L259.5,390.3z"/>
	<path class="st14" d="M454.6,389.5l-11.6,6.1c0,0-33.5-6.1-55-1.5s-27.3,16.1-27.3,16.1h-10.9c0,0,9.3-33.1,25.1-45.2
		s41.2-9.3,55.3-1.8S454.6,389.5,454.6,389.5z"/>
	<path class="st6" d="M441.8,393.3c-2.2-2.3-4.7-4.5-7.3-6.4c-2.6-2-5.3-3.8-8.1-5.4c-5.5-3-11.5-5-17.8-5.8
		c-12.2-1.5-25,2.1-34,11.5c-5.1,5.3-8.7,11.8-12.1,18.4c0,0.1,0.1,0.2,0.1,0.1c2.9-5.8,6.6-11.2,10.9-16c4.2-4.5,9.4-8,15.1-10.2
		c11.5-4.2,24-2.6,35.1,2.5c3.2,1.4,6.2,3.1,9.1,5c3,2,5.8,4.2,8.6,6.5c0,0,0.1,0,0.2,0C441.8,393.4,441.8,393.3,441.8,393.3z"/>
	<path class="st14" d="M281.9,326.5v-4.1l-104.6,3.4v9.2c0,0-30.3,33.5-33.3,68.2l104.9,2.2l10.6-15.1l9.7-4.9l5.4,0.9V384l-4.1-4.9
		l-0.2-14.4c-3.2-4.5-4.5-10-3.5-15.4C267.9,341.6,281.9,326.5,281.9,326.5z"/>
	<path class="st14" d="M239.1,400.6c-1.1,2-17,4.9-47.2,5.7c-27.1,0.7-47.4,0.1-49.1-1.6s2.4-32.7,20.8-49.5s44.5-19.2,61.6-9.2
		C240.4,354.8,251.6,377.1,239.1,400.6z"/>
	<path class="st6" d="M244.2,371.3c-1.6-7.3-5.3-14-10.7-19.3c-5.4-5.4-12.1-9.3-19.5-11.2c-8.2-2.1-16.8-2-25,0.3
		c-4.1,1.1-8,2.6-11.8,4.6c-4,2.1-7.7,4.6-11.1,7.5c-0.9,0.8-1.9,1.5-2.8,2.3c-0.1,0.1,0,0.2,0.1,0.1c3.5-3,7.2-5.7,11.2-8.1
		c3.6-2.1,7.5-3.7,11.5-5c7.9-2.5,16.4-3,24.5-1.4c7.4,1.5,14.2,4.9,19.8,10c5.4,4.8,9.3,11,11.4,18c2.5,8.4,1.7,17.7-0.8,26
		c-0.3,1.1-0.7,2.2-1.1,3.3c0,0.1,0.1,0.2,0.2,0C243.6,389.9,246.1,380.6,244.2,371.3z"/>
	<path class="st6" d="M259.5,390.3l9.7-4.9l5.4,0.9V384l-4.1-4.9l-0.2-14.4c-3.2-4.5-4.5-10-3.5-15.4c1.2-7.7,15.1-22.8,15.1-22.8
		h-4c0,0-22,11.4-27,20.7S244.3,378.6,259.5,390.3z"/>
	<path class="st2" d="M171.5,409.4c-18.2,0-27.9-0.6-32.8-2.5l2.3-5.7c5.7,2.3,23.6,2.2,52.4,1.9c21.3-0.2,37-2.3,46.8-6l2.2,5.7
		c-10.6,4-26.6,6.1-48.9,6.4C185.1,409.4,177.8,409.4,171.5,409.4z"/>
	<path class="st3" d="M314.6,270.7c-0.2,0.4-24.3,4.9-24.3,4.9s-4-2.7-1.5-6.1l24.2-5.2C314.9,265.8,315.6,268.4,314.6,270.7z"/>
	<path class="st14" d="M365.3,239.5v28.6c0,0-15.5-1.4-19.6-1.5s-22.4,2.2-22.4,2.2l-1.4-6.4c0,0,14.1-4.9,20.1-8.8
		s12.9-11.2,16.6-12.8C360.7,239.9,363,239.4,365.3,239.5z"/>
	<path class="st2" d="M323.4,261.7c1.9,1.9,2.7,4.6,2.4,7.2c0,0-11.5,2.1-11.7,2.1c0.2-2.8-1.4-5.4-4-6.5L323.4,261.7z"/>
	<ellipse class="st2" cx="365.5" cy="253.8" rx="7.6" ry="14.3"/>
	<path class="st0" d="M359.5,253.8c0,7,2.9,12.8,6.5,12.8s6.5-5.7,6.5-12.8s-2.9-12.8-6.5-12.8S359.5,246.8,359.5,253.8z"/>
	<path class="st10" d="M281.9,322.4c0,0,0.2-17.5-0.5-18.1s-104.8-0.3-107.9,0s-2.8,20.7-2.6,21.6S279.2,322.7,281.9,322.4z"/>
	<path class="st15" d="M291.1,304.5c-0.3-0.3-13.5-0.3-14.2-0.3s-0.5,18.6,0,18.6s14.3-0.1,14.8-0.5S291.8,305,291.1,304.5z"/>
	<path class="st15" d="M218.2,303.5c-0.3,0.3-0.6,0.7-0.7,1.1c-0.1,0.4-0.2,0.9-0.2,1.3c-0.1,0.9-0.1,1.8-0.2,2.7c0,1.8,0,3.6,0,5.4
		s0,3.6,0.1,5.4c0,0.9,0.1,1.8,0.3,2.6c0.1,0.4,0.2,0.9,0.4,1.2c0.2,0.4,0.6,0.7,1,0.8c-0.5,0-0.9-0.2-1.2-0.6
		c-0.3-0.4-0.5-0.8-0.7-1.2c-0.3-0.9-0.5-1.8-0.6-2.7c-0.2-1.8-0.3-3.7-0.3-5.5c0-1.8,0.1-3.7,0.3-5.5c0.1-0.9,0.3-1.8,0.5-2.7
		c0.1-0.5,0.3-0.9,0.5-1.3C217.5,304,217.8,303.7,218.2,303.5z"/>
	<rect x="164.6" y="241.9" class="st10" width="100" height="62.2"/>
	<rect x="164.6" y="241.9" class="st3" width="72.2" height="62.2"/>
	<polygon class="st10" points="289,194.3 257.9,194.3 233.5,241.9 264.6,241.9 	"/>
	<polygon class="st3" points="261.2,194.3 257.9,194.3 233.5,241.9 236.8,241.9 	"/>
	<rect x="172.7" y="241.9" class="st14" width="6.2" height="62.2"/>
	<rect x="218.2" y="241.9" class="st14" width="6.2" height="62.2"/>
	<path class="st18" d="M181.8,262.1v-7.1c0-0.4,0.3-0.7,0.7-0.7l0,0h3.9c0.4,0,0.6,0.4,0.6,0.7c0,0.3-0.3,0.5-0.6,0.6h-3.2v2.2h2.8
		c0.4,0,0.6,0.3,0.7,0.7c0,0.4-0.3,0.7-0.7,0.7c0,0,0,0,0,0h-2.8v2.9c0,0.4-0.3,0.7-0.7,0.7C182.1,262.8,181.8,262.5,181.8,262.1z"
		/>
	<path class="st18" d="M195.4,255.4c1.6,1.7,1.6,4.4,0,6.1c-0.7,0.8-1.8,1.3-2.9,1.3c-1.1,0-2.2-0.5-2.9-1.3c-1.6-1.7-1.6-4.4,0-6.1
		c0.8-0.8,1.8-1.3,2.9-1.3C193.6,254.2,194.7,254.6,195.4,255.4z M195.3,258.5c0-0.8-0.3-1.5-0.8-2.1c-1-1.1-2.6-1.1-3.7-0.2
		c-0.1,0.1-0.1,0.1-0.2,0.2c-0.5,0.6-0.8,1.3-0.8,2.1c0,0.8,0.3,1.5,0.8,2.1c0.9,1.1,2.5,1.2,3.6,0.2c0.1-0.1,0.2-0.2,0.2-0.2
		C195,260,195.3,259.2,195.3,258.5L195.3,258.5z"/>
	<path class="st18" d="M205.5,255.4c1.6,1.7,1.6,4.4,0,6.1c-0.7,0.8-1.8,1.3-2.9,1.3c-1.1,0-2.2-0.5-2.9-1.3c-1.6-1.7-1.6-4.4,0-6.1
		c0.8-0.8,1.8-1.3,2.9-1.3C203.7,254.2,204.8,254.6,205.5,255.4z M205.3,258.5c0-0.8-0.3-1.5-0.8-2.1c-1-1.1-2.6-1.1-3.7-0.2
		c-0.1,0.1-0.1,0.1-0.2,0.2c-0.5,0.6-0.8,1.3-0.8,2.1c0,0.8,0.3,1.5,0.8,2.1c0.9,1.1,2.5,1.2,3.6,0.2c0.1-0.1,0.2-0.2,0.2-0.2
		C205,260,205.3,259.2,205.3,258.5L205.3,258.5z"/>
	<path class="st18" d="M208.7,262.1v-7.1c0-0.4,0.3-0.7,0.6-0.7c0,0,0,0,0,0h1.4c2.3,0.1,4.1,2.1,4,4.4c-0.1,2.2-1.8,3.9-4,4h-1.4
		C209,262.8,208.7,262.5,208.7,262.1L208.7,262.1z M210.1,261.5h0.7c1.6-0.1,2.8-1.5,2.7-3c-0.1-1.5-1.2-2.6-2.7-2.7h-0.7V261.5z"/>
	<path class="st18" d="M196.6,268.1h-1.3v4.5c0,0.3-0.1,0.5-0.4,0.5c-0.3,0-0.5-0.1-0.5-0.4c0,0,0-0.1,0-0.1v-4.5H193
		c-0.3,0-0.5-0.2-0.5-0.5c0-0.3,0.2-0.5,0.5-0.5l0,0h3.6c0.3,0,0.5,0.2,0.5,0.5C197.1,267.9,196.9,268.1,196.6,268.1z"/>
	<path class="st18" d="M202.7,267.9c0.5,0.6,0.9,1.3,0.9,2.1c0,0.8-0.3,1.6-0.9,2.1c-0.5,0.6-1.2,0.9-2,0.9c-0.8,0-1.5-0.3-2.1-0.9
		c-0.5-0.6-0.8-1.3-0.8-2.1c0-0.8,0.3-1.6,0.8-2.1c0.5-0.6,1.3-0.9,2.1-0.9C201.4,267,202.2,267.3,202.7,267.9z M202.6,270
		c0-0.5-0.2-1.1-0.6-1.5c-0.3-0.4-0.8-0.6-1.3-0.6c-0.5,0-1,0.2-1.4,0.6c-0.8,0.8-0.8,2.1,0,2.9c0.4,0.4,0.8,0.6,1.4,0.6
		c0.5,0,1-0.2,1.3-0.6C202.4,271.1,202.6,270.6,202.6,270L202.6,270z"/>
	<path class="st18" d="M181.8,283.8c1-4.6,5-7.9,9.7-8c1.8,0,3.5,0.6,4.8,1.8c0.5,0.5,0.4,1.3,0,1.7c0,0,0,0,0,0
		c-0.4,0.5-1.2,0.6-1.8,0.2c-0.9-0.8-2.1-1.2-3.4-1.2c-1.6,0-3.1,0.6-4.3,1.6c-1.2,1-2,2.4-2.3,3.9c-0.3,1.4,0.1,2.8,1,3.9
		c0.9,1.1,2.3,1.7,3.8,1.6c1.1,0,2.2-0.3,3.2-0.9l0.6-3.1h-3.2c-0.6,0-1-0.4-1-1c0-0.1,0-0.2,0-0.3c0.1-0.7,0.8-1.3,1.5-1.3h4.4
		c0.5-0.1,1,0.3,1.1,0.9c0,0.1,0,0.3,0,0.4l-0.9,5c0,0.1-0.1,0.2-0.1,0.3l-0.1,0.1l0,0c-0.1,0.2-0.3,0.4-0.5,0.5
		c-1.6,1.1-3.5,1.7-5.4,1.8l0,0c-3.7,0.2-6.8-2.6-7.1-6.2C181.6,285,181.7,284.4,181.8,283.8z"/>
	<path class="st18" d="M201,289.5c-1.2-1.6-1.6-3.7-1.2-5.6c0.4-2.2,1.5-4.2,3.2-5.7c1.6-1.5,3.7-2.3,5.9-2.4c1.9,0,3.8,0.9,5,2.4
		c1.2,1.6,1.6,3.7,1.2,5.7c-0.4,2.2-1.5,4.2-3.2,5.6c-1.6,1.5-3.7,2.3-5.9,2.4C204,291.9,202.2,291,201,289.5z M202.3,283.8
		c-0.3,1.4,0,2.8,0.8,3.9c0.8,1,2,1.6,3.3,1.6c1.4,0,2.8-0.6,3.9-1.6c1.1-1,1.9-2.4,2.2-3.9c0.3-1.4,0-2.8-0.8-3.9
		c-0.8-1-2-1.6-3.3-1.6c-1.4,0-2.8,0.6-3.9,1.6C203.4,280.9,202.6,282.3,202.3,283.8L202.3,283.8z"/>
	<rect x="181.8" y="269.8" class="st18" width="7.1" height="1"/>
	<rect x="207.9" y="269.8" class="st18" width="7.1" height="1"/>
	<path class="st14" d="M204.6,267.3h-5.8l2.1-6.5c0.2-0.8-0.4-1.5-1.2-1.5h-7.2c-0.6,0-1.1,0.4-1.2,1l-1.6,12
		c-0.1,0.7,0.5,1.4,1.2,1.4h6l-2.3,9.8c-0.2,0.8,0.4,1.5,1.2,1.5c0.4,0,0.8-0.2,1-0.6l8.8-15.3C206.1,268.3,205.5,267.3,204.6,267.3
		z"/>
	<path class="st14" d="M367.9,277.3c2.5,3.7,12.6,53.9,14.6,56.4s5.8,2.7,5.8,2.7L395,353c0,0-16.6,5.2-25.8,12.8
		c-11.9,9.8-22.9,42.2-22.9,42.2c-1.8,1.3-24.1,10.5-30.3,10.8c0,0,28.5-31.3,30.8-74.6c0.9-16.8-9.4-40.4-10.1-52.1
		c-0.7-12.5,3.1-14.8,9.7-14.8L367.9,277.3z"/>
	<path class="st2" d="M314.7,422.4l-4.5-4.2c25-26.5,34.2-68.1,33.5-79.5c-0.4-5.8-2.2-12.4-4.2-19.3c-2.1-7.4-4.5-15.7-5.5-24.8
		c-1-8.4,0-13.9,2.9-17.1s6.8-3.2,9.4-3.2H370v6.1h-23.8c-2.3,0-3.9,0.1-4.8,1.2s-2.3,4-1.3,12.3c1,8.5,3.2,16.3,5.3,23.8
		c2.1,7.2,4,14.1,4.5,20.6C350.6,350.4,341,394.6,314.7,422.4z"/>
	<path class="st2" d="M382.6,347.5c1.4,5.1,5.8,8.4,9.9,7.3s6.2-6.2,4.8-11.3s-5.8-8.5-9.9-7.4S381.2,342.3,382.6,347.5z"/>
	<path class="st0" d="M384.1,347c1.3,4.6,5.1,7.6,8.5,6.6s5.2-5.4,4-10s-5.1-7.6-8.5-6.6S382.9,342.5,384.1,347z"/>
	<path class="st6" d="M364.9,346.6c-1.1-5.2-2.3-10.4-3.4-15.5s-2-10.4-2.8-15.6c-0.8-4.9-1.6-9.8-2-14.7c-0.3-5.1,0-10.4,2.5-15
		c0,0,0-0.1,0-0.1c0,0-0.1,0-0.1,0c-2.6,3.8-3.4,8.2-3.5,12.7c0,4.9,0.4,9.9,1.3,14.7c1.5,10.7,3.5,21.2,6,31.7
		c1.5,5.9,3.3,11.7,5.3,17.5c0,0,0.1,0.1,0.1,0s0.1-0.1,0-0.1l0,0C367.2,357,366.1,351.8,364.9,346.6z"/>
</g>
</svg>
